<svg width="132" height="44" viewBox="0 0 132 44" fill="none" xmlns="http://www.w3.org/2000/svg">
<path d="M11.6337 0.976562V1.16213L10.8629 1.3477V9.56983L11.6337 9.7554V9.94097H7.97946V9.7554L8.7503 9.56983V2.56104L5.7241 10.0694H5.33866L1.41317 2.56104V9.36999L2.44093 9.7554V9.94097H0V9.7554L1.02777 9.36999V1.3477L0.256931 1.16213V0.976562H1.85567C2.09834 0.976562 2.31246 1.00511 2.48376 1.06221C2.65505 1.11931 2.82637 1.19068 2.95484 1.2906C3.09758 1.39052 3.21178 1.50472 3.3117 1.63319C3.41162 1.76166 3.49728 1.91868 3.58292 2.0757L6.38072 7.42865L8.5219 2.0757C8.59327 1.89013 8.66466 1.73311 8.76459 1.60464C8.85023 1.47617 8.9644 1.36198 9.09287 1.26205C9.22134 1.16213 9.37839 1.09076 9.56396 1.04793C9.74952 1.00511 9.9779 0.976562 10.2634 0.976562H11.6337V0.976562Z" fill="#292F36"/>
<path d="M16.2015 3.3606C16.7297 3.3606 17.215 3.43197 17.629 3.58899C18.043 3.74601 18.3998 3.9744 18.6996 4.25989C18.9994 4.55966 19.2135 4.91652 19.3705 5.33048C19.5275 5.74444 19.5989 6.22978 19.5989 6.75793C19.5989 7.28609 19.5275 7.77143 19.3705 8.18539C19.2135 8.59935 18.9851 8.95621 18.6996 9.25598C18.3998 9.55574 18.043 9.76986 17.629 9.92688C17.215 10.0839 16.7297 10.1553 16.2015 10.1553C15.6734 10.1553 15.1881 10.0839 14.7741 9.92688C14.3601 9.76986 14.0033 9.54147 13.7035 9.25598C13.4037 8.95621 13.1896 8.59935 13.0326 8.18539C12.8756 7.77143 12.8042 7.28609 12.8042 6.75793C12.8042 6.22978 12.8756 5.74444 13.0326 5.33048C13.1896 4.91652 13.418 4.55966 13.7035 4.25989C14.0033 3.96012 14.3601 3.74601 14.7741 3.58899C15.1881 3.43197 15.6591 3.3606 16.2015 3.3606ZM16.2015 9.91261C16.3443 9.91261 16.487 9.86978 16.6441 9.76986C16.7868 9.66994 16.9153 9.51292 17.0294 9.27025C17.1436 9.02759 17.2436 8.71355 17.315 8.31386C17.3863 7.8999 17.4291 7.38601 17.4291 6.77221C17.4291 6.14413 17.3863 5.63025 17.315 5.23056C17.2436 4.83087 17.1436 4.50256 17.0294 4.27417C16.9153 4.04577 16.7868 3.87448 16.6441 3.77456C16.5013 3.67464 16.3586 3.63181 16.2015 3.63181C16.0588 3.63181 15.9161 3.67464 15.759 3.77456C15.6163 3.87448 15.4878 4.0315 15.3736 4.27417C15.2594 4.51683 15.1595 4.83087 15.0881 5.23056C15.0168 5.64452 14.9739 6.1584 14.9739 6.77221C14.9739 7.40029 15.0168 7.91417 15.0881 8.31386C15.1595 8.71355 15.2594 9.04186 15.3736 9.27025C15.4878 9.49864 15.6163 9.66994 15.759 9.76986C15.9018 9.85551 16.0445 9.91261 16.2015 9.91261Z" fill="#292F36"/>
<path d="M25.8369 0.976562C26.6078 0.976562 26.9932 1.36197 26.9932 2.1328V9.58411L27.764 9.76968V9.95525H26.6078C26.2937 9.95525 26.051 9.91242 25.8655 9.8125C25.6799 9.71258 25.5229 9.59838 25.423 9.48419C25.2945 9.34144 25.1946 9.17015 25.1375 8.99885C25.0233 9.22725 24.8805 9.41281 24.7092 9.58411C24.5665 9.72685 24.3666 9.85532 24.124 9.98379C23.8813 10.1123 23.5958 10.1694 23.2675 10.1694C22.8964 10.1694 22.5538 10.098 22.2397 9.95525C21.9114 9.8125 21.6402 9.59838 21.4118 9.31289C21.1834 9.0274 20.9836 8.67054 20.8551 8.25658C20.7124 7.82834 20.6553 7.343 20.6553 6.77202C20.6553 6.20104 20.7267 5.71571 20.8551 5.28747C20.9979 4.85924 21.1834 4.51665 21.4404 4.23116C21.683 3.94567 21.9828 3.73155 22.3254 3.5888C22.668 3.44606 23.0534 3.37468 23.4816 3.37468C23.71 3.37468 23.9099 3.40323 24.0954 3.44606C24.281 3.50315 24.438 3.56025 24.5665 3.63163C24.7235 3.703 24.852 3.78865 24.9662 3.88857V1.39053L24.1954 1.20495V1.01939H25.8369V0.976562ZM24.9376 4.2597C24.8377 4.15978 24.7521 4.07414 24.6379 4.00277C24.538 3.93139 24.438 3.87429 24.3238 3.81719C24.2096 3.7601 24.0954 3.74582 23.967 3.74582C23.81 3.74582 23.6529 3.78865 23.5102 3.87429C23.3674 3.95994 23.2532 4.10269 23.139 4.3168C23.0391 4.53092 22.9535 4.84496 22.8964 5.23037C22.8393 5.63006 22.8107 6.12967 22.8107 6.75775C22.8107 7.37155 22.8393 7.85689 22.8964 8.2423C22.9535 8.62771 23.0249 8.92748 23.1248 9.1416C23.2104 9.35571 23.3104 9.51274 23.4388 9.58411C23.553 9.65548 23.6672 9.6983 23.7814 9.6983C23.9812 9.6983 24.1525 9.64121 24.2953 9.54128C24.438 9.44136 24.5522 9.31289 24.6521 9.18442C24.7663 9.0274 24.8663 8.85611 24.9519 8.67054V4.2597H24.9376Z" fill="#292F36"/>
<path d="M32.0605 10.1694C30.9614 10.1694 30.1049 9.86967 29.5054 9.27014C28.8916 8.67061 28.5918 7.82841 28.5918 6.77209C28.5918 6.24394 28.6632 5.7586 28.8202 5.34464C28.9772 4.93068 29.1914 4.57382 29.4626 4.27405C29.7338 3.97429 30.0621 3.76017 30.4618 3.60315C30.8472 3.44613 31.2754 3.37476 31.7465 3.37476C32.2318 3.37476 32.6601 3.44613 33.0312 3.5746C33.4166 3.71734 33.7306 3.90291 34.0019 4.13131C34.2731 4.3597 34.4729 4.63092 34.6157 4.94496C34.7584 5.259 34.8298 5.58731 34.8298 5.94417C34.8298 6.05837 34.8298 6.17257 34.8155 6.25821C34.8012 6.34386 34.787 6.42951 34.7727 6.50088C34.7441 6.58653 34.7298 6.6579 34.7013 6.715C34.3302 6.78637 33.9305 6.85774 33.5022 6.90057C33.1454 6.95766 32.7314 7.00049 32.2604 7.02904C31.7893 7.05759 31.304 7.08614 30.7901 7.08614C30.7901 7.61429 30.8329 8.0568 30.9043 8.41367C30.9756 8.77053 31.0898 9.05602 31.2183 9.25586C31.3611 9.46998 31.5181 9.61273 31.7036 9.69838C31.8892 9.78402 32.1034 9.82685 32.3175 9.82685C32.5744 9.82685 32.8171 9.78402 33.0454 9.6841C33.2738 9.58418 33.4737 9.46998 33.6307 9.31296C33.802 9.15594 33.9305 8.97037 34.0304 8.77053C34.1303 8.57069 34.1731 8.37084 34.1731 8.15673H34.4872C34.4872 8.41367 34.4301 8.65633 34.3159 8.899C34.2017 9.14167 34.0304 9.35579 33.8163 9.54135C33.6022 9.72692 33.3452 9.86967 33.0454 9.98386C32.76 10.1123 32.4316 10.1694 32.0605 10.1694ZM30.7758 6.75782C31.0613 6.75782 31.3182 6.75782 31.5466 6.74355C31.775 6.72927 31.9606 6.715 32.1176 6.70072C32.3032 6.68645 32.4459 6.6579 32.5744 6.64362C32.5887 6.55798 32.6172 6.45806 32.6315 6.35813C32.6458 6.25821 32.6601 6.15829 32.6743 6.04409C32.6886 5.9299 32.6886 5.80143 32.6886 5.67296C32.6886 5.28754 32.66 4.95923 32.6029 4.70229C32.5458 4.44535 32.4745 4.23123 32.3745 4.05993C32.2889 3.90291 32.189 3.77444 32.0605 3.71734C31.932 3.66025 31.8321 3.61742 31.7179 3.61742C31.6037 3.61742 31.4895 3.66025 31.3753 3.74589C31.2612 3.83154 31.1612 3.98856 31.0613 4.20268C30.9757 4.43107 30.89 4.74511 30.8329 5.15907C30.7758 5.57303 30.7758 6.10119 30.7758 6.75782Z" fill="#292F36"/>
<path d="M40.2255 3.80305C39.9686 3.80305 39.7402 3.86015 39.5403 3.96007C39.3405 4.05999 39.1692 4.18847 39.0264 4.31694C38.8694 4.47396 38.7409 4.64525 38.6125 4.83082V9.58424L39.3833 9.76981V9.95538H35.7861V9.76981L36.557 9.58424V3.93152L35.7861 3.74596V3.56039H36.9424C37.2421 3.56039 37.4848 3.61748 37.6846 3.71741C37.8702 3.81733 38.0272 3.93152 38.1414 4.04572C38.2699 4.18847 38.3698 4.34548 38.4269 4.51678C38.5554 4.33121 38.7124 4.15992 38.898 4.0029C39.055 3.87443 39.2549 3.76023 39.4975 3.64603C39.7402 3.53184 40.0114 3.48901 40.3397 3.48901C40.7965 3.48901 41.1391 3.60321 41.3675 3.80305C41.5959 4.01717 41.6958 4.31694 41.6958 4.70235C41.6958 4.98784 41.6101 5.23051 41.4388 5.4018C41.2675 5.5731 41.0249 5.65874 40.7394 5.65874C40.668 5.65874 40.6109 5.65874 40.5395 5.65874C40.4682 5.65874 40.4254 5.64447 40.3825 5.64447C40.3254 5.63019 40.2683 5.63019 40.2255 5.60164V3.80305V3.80305Z" fill="#292F36"/>
<path d="M47.2203 5.4731C47.2203 5.18761 47.1918 4.93067 47.1347 4.71655C47.0776 4.50243 47.0062 4.33113 46.9063 4.20266C46.8207 4.05992 46.7207 3.96 46.5923 3.9029C46.4781 3.8458 46.3639 3.80298 46.2497 3.80298C46.0498 3.80298 45.8785 3.86008 45.7358 3.96C45.593 4.05992 45.4646 4.18839 45.3789 4.31686C45.2647 4.47388 45.1791 4.64518 45.0934 4.83074V9.58416L45.8643 9.76973V9.9553H42.2671V9.76973L43.0379 9.58416V3.93145L42.2671 3.74588V3.56031H43.4233C43.7231 3.56031 43.9657 3.61741 44.1656 3.71733C44.3512 3.81725 44.5082 3.93145 44.6224 4.04564C44.7509 4.18839 44.8507 4.34541 44.9078 4.5167C45.022 4.30258 45.1648 4.10274 45.3361 3.93145C45.4789 3.7887 45.6787 3.66023 45.9071 3.53176C46.1355 3.40329 46.4352 3.34619 46.7778 3.34619C47.1489 3.34619 47.4916 3.40329 47.7913 3.53176C48.1054 3.64596 48.3623 3.81725 48.5764 4.00282C48.7905 4.20266 48.9618 4.41678 49.0903 4.67372C49.2188 4.93067 49.2758 5.18761 49.2758 5.45882V9.56989L50.0467 9.75546V9.94103H48.3766C47.6058 9.94103 47.2203 9.55561 47.2203 8.78479V5.4731V5.4731Z" fill="#292F36"/>
<path d="M1.35596 18.9766V18.4485H11.2767V18.9766L9.19266 19.5048V30.2821H16.6725V19.5048L14.5884 18.9766V18.4485H24.5093V18.9766L22.4251 19.5048V41.7731L24.5093 42.3012V42.8294H14.5884V42.287L16.6725 41.7588V31.1528H9.19266V41.7588L11.2767 42.287V42.8151H1.35596V42.287L3.44003 41.7588V19.4905L1.35596 18.9766Z" fill="#292F36"/>
<path d="M36.8424 24.8865C38.2842 24.8865 39.5689 25.1006 40.7108 25.5146C41.8528 25.9285 42.8092 26.5423 43.6085 27.3417C44.4079 28.1411 45.0217 29.1117 45.4357 30.2537C45.8496 31.3957 46.0638 32.6804 46.0638 34.1221C46.0638 35.5638 45.8496 36.8485 45.4357 37.9905C45.0217 39.1325 44.4079 40.0889 43.6085 40.8882C42.8092 41.6876 41.8385 42.3014 40.7108 42.7154C39.5689 43.1293 38.2842 43.3434 36.8424 43.3434C35.4007 43.3434 34.116 43.1293 32.974 42.7154C31.8321 42.3014 30.8757 41.6876 30.0763 40.8882C29.2769 40.0889 28.6631 39.1182 28.2492 37.9905C27.8352 36.8485 27.6211 35.5638 27.6211 34.1221C27.6211 32.6804 27.8352 31.3957 28.2492 30.2537C28.6631 29.1117 29.2769 28.1553 30.0763 27.3417C30.8757 26.528 31.8464 25.9285 32.974 25.5146C34.116 25.1006 35.4007 24.8865 36.8424 24.8865ZM36.8424 42.6297C37.2421 42.6297 37.6276 42.5013 38.0272 42.2443C38.4269 41.9874 38.7695 41.5449 39.0835 40.9025C39.3976 40.2602 39.6545 39.3894 39.8544 38.2903C40.0542 37.1911 40.1541 35.7922 40.1541 34.0936C40.1541 32.3949 40.0542 30.996 39.8544 29.8968C39.6545 28.7977 39.3976 27.927 39.0835 27.2846C38.7695 26.6422 38.4127 26.1997 38.0272 25.9428C37.6418 25.6859 37.2421 25.5574 36.8424 25.5574C36.4427 25.5574 36.0574 25.6859 35.6577 25.9428C35.258 26.1997 34.9154 26.6422 34.6013 27.2846C34.2873 27.927 34.0304 28.7977 33.8305 29.8968C33.6307 30.996 33.5307 32.3949 33.5307 34.0936C33.5307 35.7922 33.6307 37.1911 33.8305 38.2903C34.0304 39.3894 34.2873 40.2602 34.6013 40.9025C34.9154 41.5449 35.2723 41.9874 35.6577 42.2443C36.0574 42.5013 36.4427 42.6297 36.8424 42.6297Z" fill="#292F36"/>
<path d="M72.1433 30.6248C72.1433 29.7969 72.072 29.0832 71.9292 28.5265C71.7865 27.9698 71.6152 27.4987 71.3868 27.1418C71.1584 26.785 70.9157 26.528 70.6588 26.3567C70.3876 26.1997 70.1306 26.1141 69.8737 26.1141C69.4312 26.1141 69.0458 26.2568 68.7032 26.5423C68.3606 26.8278 68.0751 27.1561 67.8182 27.4987C67.5469 27.9127 67.29 28.3837 67.0902 28.8833V41.759L69.1885 42.2871V42.8153H59.4533V42.2871L61.5374 41.759V30.6248C61.5374 29.7969 61.466 29.0832 61.3232 28.5265C61.1805 27.9698 61.0092 27.4987 60.7808 27.1418C60.5524 26.785 60.3098 26.528 60.0528 26.3567C59.7816 26.1997 59.5246 26.1141 59.2677 26.1141C58.8252 26.1141 58.4398 26.2568 58.0972 26.5423C57.7546 26.8278 57.4691 27.1561 57.2122 27.4987C56.9267 27.9127 56.684 28.3837 56.4842 28.8833V41.759L58.5683 42.2871V42.8153H48.833V42.2871L50.9171 41.759V26.4567L48.833 25.9285V25.4003H51.9591C52.7728 25.4003 53.4437 25.5431 53.9576 25.8143C54.4857 26.0855 54.8854 26.3996 55.1995 26.7136C55.5421 27.1133 55.799 27.5415 55.9703 27.9983C56.27 27.4131 56.6412 26.8992 57.0837 26.4281C57.4834 26.0284 57.9687 25.6716 58.5397 25.3432C59.125 25.0149 59.8244 24.8579 60.6666 24.8579C62.0512 24.8579 63.2646 25.172 64.2638 25.7858C65.2773 26.3996 66.0481 27.1989 66.5763 28.1696C66.8761 27.5701 67.2472 27.0276 67.6897 26.528C68.0894 26.1141 68.5747 25.7287 69.1457 25.3861C69.7309 25.0435 70.4304 24.8579 71.2726 24.8579C72.229 24.8579 73.0855 25.0149 73.8848 25.3147C74.6699 25.6145 75.3551 26.0284 75.9261 26.5566C76.4971 27.0847 76.9396 27.6843 77.2536 28.3837C77.5677 29.0832 77.7247 29.8254 77.7247 30.6105V41.7447L79.8088 42.2728V42.801H75.2837C73.1996 42.801 72.1576 41.759 72.1576 39.6749V30.6248H72.1433Z" fill="#292F36"/>
<path d="M91.2857 43.329C88.3166 43.329 86.0041 42.5154 84.3626 40.8738C82.721 39.2323 81.8931 36.9911 81.8931 34.1077C81.8931 32.666 82.1072 31.3813 82.5211 30.2393C82.9351 29.0973 83.5204 28.1409 84.2626 27.3273C85.0049 26.5279 85.9042 25.9141 86.9606 25.5001C88.0169 25.0862 89.1731 24.8721 90.415 24.8721C91.7139 24.8721 92.8845 25.0576 93.9122 25.4288C94.94 25.7999 95.825 26.2995 96.5388 26.9276C97.2525 27.5557 97.8092 28.298 98.1946 29.1402C98.58 29.9824 98.7656 30.8816 98.7656 31.838C98.7656 32.1664 98.7513 32.4518 98.7085 32.6945C98.6656 32.9372 98.6371 33.1513 98.58 33.3369C98.5086 33.5653 98.4515 33.7651 98.4087 33.9221C97.3809 34.1362 96.3104 34.3075 95.1684 34.4503C94.1977 34.593 93.07 34.7072 91.7996 34.8214C90.5292 34.9213 89.1874 34.9784 87.8027 34.9784C87.8027 36.4202 87.9027 37.6192 88.1168 38.5756C88.3309 39.532 88.6164 40.3028 88.9875 40.8738C89.3587 41.4448 89.8012 41.8445 90.315 42.0872C90.8289 42.3298 91.3856 42.4583 91.9852 42.4583C92.6846 42.4583 93.3413 42.3298 93.9551 42.0729C94.5689 41.8159 95.097 41.4734 95.5538 41.0451C96.0106 40.6169 96.3675 40.1315 96.6387 39.5891C96.9099 39.0467 97.0384 38.49 97.0384 37.9333H97.9091C97.9091 38.6327 97.7521 39.3036 97.4381 39.946C97.124 40.6026 96.6815 41.1736 96.0962 41.6732C95.511 42.1728 94.8258 42.5725 94.0122 42.8723C93.1843 43.172 92.2707 43.329 91.2857 43.329ZM87.8027 34.1077C88.5878 34.1077 89.2873 34.0934 89.8868 34.0506C90.4863 34.0078 91.0002 33.9792 91.4142 33.9364C91.8995 33.8936 92.3135 33.8365 92.6704 33.7651C92.7132 33.5367 92.7703 33.2798 92.8417 32.9943C92.8845 32.7373 92.9273 32.4518 92.9558 32.1378C92.9844 31.8238 93.0129 31.4955 93.0129 31.1529C93.0129 30.1108 92.9273 29.2401 92.7703 28.5263C92.6132 27.8126 92.3991 27.2416 92.1565 26.7991C91.9138 26.3566 91.6283 26.0426 91.3286 25.857C91.0145 25.6714 90.7004 25.5715 90.4007 25.5715C90.1009 25.5715 89.7869 25.6857 89.4728 25.8998C89.1588 26.1282 88.8876 26.5422 88.6449 27.156C88.4023 27.7698 88.2024 28.6405 88.0311 29.754C87.8884 30.8674 87.8027 32.3234 87.8027 34.1077Z" fill="#292F36"/>
<path d="M115.852 42.4584V28.3409L103.376 18.4629V42.4584H115.852Z" fill="#292F36"/>
<path d="M131.283 42.4584V28.3409L119.007 18.4629V42.4584H131.283Z" fill="#292F36"/>
</svg>
