<svg width="103" height="103" viewBox="0 0 103 103" fill="none" xmlns="http://www.w3.org/2000/svg">
<path d="M51.4428 101.606C79.3035 101.606 101.889 79.0205 101.889 51.1598C101.889 23.2992 79.3035 0.713623 51.4428 0.713623C23.5821 0.713623 0.996582 23.2992 0.996582 51.1598C0.996582 79.0205 23.5821 101.606 51.4428 101.606Z" fill="white"/>
<path d="M51.4426 102.32C23.2362 102.32 0.282715 79.3664 0.282715 51.1599C0.282715 22.9535 23.2362 0 51.4426 0C79.6491 0 102.603 22.9535 102.603 51.1599C102.603 79.3664 79.6491 102.32 51.4426 102.32ZM51.4426 1.42745C24.0213 1.42745 1.71017 23.7386 1.71017 51.1599C1.71017 78.5813 24.0213 100.892 51.4426 100.892C78.864 100.892 101.175 78.5813 101.175 51.1599C101.175 23.7386 78.864 1.42745 51.4426 1.42745Z" fill="#292F36"/>
<path d="M58.6371 5.83827C58.9796 5.86682 59.2794 5.88109 59.5221 5.88109L59.4935 6.10949C59.0938 6.16658 58.7513 6.46635 58.48 7.03733L55.0827 13.832L54.9828 13.8177L54.8971 13.8035L52.7417 6.22368C52.5989 5.72407 52.3563 5.45286 52.0137 5.41003L52.0422 5.18164C52.3563 5.23874 52.7702 5.28156 53.2841 5.33866C53.955 5.39576 54.4546 5.43858 54.7829 5.43858L54.7544 5.66697C54.4546 5.6527 54.2405 5.66697 54.112 5.7098C53.9836 5.75262 53.9122 5.86682 53.8979 6.00956C53.8836 6.13803 53.9122 6.3236 53.9836 6.56627L55.568 12.3617L57.9233 7.62259C58.1232 7.23717 58.2231 6.92313 58.2516 6.69474C58.2802 6.45207 58.2088 6.26651 58.0518 6.13803C57.8948 6.00956 57.6378 5.93819 57.2952 5.89537L57.3238 5.66697C57.7378 5.73835 58.1803 5.79545 58.6371 5.83827Z" fill="#292F36"/>
<path d="M68.2296 8.85021C68.0869 8.85021 67.9727 8.90731 67.887 9.02151C67.8014 9.13571 67.7014 9.32127 67.6015 9.59249L65.5603 15.0168C65.4603 15.288 65.4032 15.5021 65.4032 15.6449C65.4032 15.7876 65.4461 15.9018 65.546 15.9875C65.6459 16.0731 65.8315 16.1731 66.0884 16.2872L66.0028 16.5014C65.6745 16.3586 65.2177 16.1731 64.6324 15.9447C64.0043 15.702 63.5333 15.545 63.2192 15.4451L63.3049 15.2309C63.5761 15.3166 63.7759 15.3594 63.9044 15.3594C64.0329 15.3594 64.1614 15.3023 64.247 15.1881C64.3327 15.0739 64.4326 14.8883 64.5325 14.6171L66.5738 9.1928C66.6737 8.92159 66.7308 8.70747 66.7308 8.56472C66.7308 8.42198 66.688 8.30778 66.588 8.22214C66.4881 8.13649 66.3025 8.03657 66.0456 7.92237L66.1312 7.70825C66.431 7.83672 66.8878 8.02229 67.5159 8.26496C68.1011 8.49335 68.5722 8.65037 68.9148 8.75029L68.8291 8.96441C68.5722 8.87876 68.3723 8.83594 68.2296 8.85021Z" fill="#292F36"/>
<path d="M80.9342 16.4015C80.7915 16.373 80.6487 16.4158 80.5203 16.5014C80.3918 16.5871 80.2348 16.7584 80.0635 17.001L75.9239 22.6109L75.7098 22.4539L76.2665 13.4324L72.5979 18.3999C72.4266 18.6426 72.3124 18.8424 72.2553 18.9995C72.1982 19.1565 72.2268 19.2992 72.2981 19.442C72.3695 19.5847 72.5408 19.7417 72.7835 19.9416L72.6407 20.1272C72.4266 19.9416 72.1126 19.6989 71.6986 19.3849C71.3275 19.1137 71.0277 18.8995 70.7993 18.7711L70.9421 18.5855C71.1705 18.7425 71.356 18.8282 71.4988 18.8424C71.6415 18.871 71.7843 18.8282 71.9127 18.7425C72.0412 18.6426 72.1982 18.4856 72.3695 18.2429L75.7383 13.6751C75.9096 13.4324 76.0238 13.2468 76.0666 13.1184C76.1094 12.9899 76.0952 12.8614 76.0238 12.7472C75.9524 12.633 75.8097 12.4903 75.5813 12.3047L75.724 12.1191C75.9096 12.2904 76.1951 12.5188 76.5805 12.79C76.866 13.0042 77.1087 13.1755 77.3371 13.3039L76.8803 20.8694L79.8494 16.844C80.0207 16.6013 80.1491 16.4015 80.192 16.2445C80.2348 16.0875 80.2205 15.9447 80.1491 15.802C80.0778 15.6592 79.9065 15.4879 79.6638 15.3024L79.8065 15.1168C80.0207 15.3024 80.3347 15.545 80.7487 15.8591C81.1198 16.1303 81.4196 16.3444 81.648 16.4729L81.5052 16.6584C81.2626 16.5157 81.077 16.4158 80.9342 16.4015Z" fill="#292F36"/>
<path d="M85.716 22.8391C86.0871 22.5679 86.4725 22.2681 86.8865 21.897C87.2434 22.4394 87.8715 23.3387 88.7708 24.6091C89.67 25.8653 90.3124 26.7503 90.6978 27.2642C90.2125 27.5497 89.7985 27.8066 89.4274 28.0636C89.1133 28.292 88.8564 28.4918 88.6708 28.6488L88.5138 28.4347C88.9706 28.035 89.2846 27.7067 89.4702 27.464C89.6558 27.2214 89.7271 26.9644 89.7129 26.6932C89.6986 26.422 89.5273 26.0937 89.2561 25.694L88.8849 25.1801L83.4749 29.0342C83.218 29.2198 83.0324 29.3911 82.9467 29.5196C82.8611 29.648 82.8325 29.8051 82.8896 29.9764C82.9325 30.1334 83.0609 30.3618 83.2465 30.6473L83.0609 30.79C82.8468 30.4474 82.5185 29.9621 82.0903 29.3768C81.6335 28.7345 81.2909 28.2777 81.0625 27.9922L81.2481 27.8495C81.4622 28.1207 81.6335 28.3062 81.7762 28.4062C81.919 28.5061 82.0617 28.5346 82.2187 28.4918C82.3758 28.449 82.5899 28.3348 82.8468 28.1492L88.2569 24.2951L87.8857 23.7812C87.6002 23.3815 87.3433 23.1389 87.1006 23.0247C86.858 22.9105 86.5867 22.8962 86.3013 22.9961C86.0158 23.096 85.6018 23.2816 85.0736 23.5814L84.9166 23.3673C85.1307 23.2531 85.3877 23.0818 85.716 22.8391Z" fill="#292F36"/>
<path d="M88.4568 42.6523L88.2284 42.7237C88.1428 42.4096 88.0286 42.0099 87.8573 41.5246C87.6432 40.8965 87.4719 40.4255 87.3434 40.1114L87.5718 40.04C87.6717 40.3113 87.7859 40.5111 87.8716 40.611C87.9715 40.711 88.1 40.7395 88.2427 40.6824C88.3712 40.6396 88.5282 40.5397 88.7138 40.3826L90.2982 39.0837L89.3989 36.4143L88.0714 36.3572C87.6432 36.3287 87.3149 36.3572 87.0865 36.4429C86.8581 36.5285 86.7153 36.657 86.6582 36.8426C86.6154 37.0281 86.644 37.2993 86.7439 37.6277L86.5155 37.699C86.4013 37.2708 86.2585 36.8426 86.1158 36.4143C86.0016 36.086 85.9017 35.8148 85.8018 35.6007L86.0302 35.5293C86.23 35.8719 86.6582 36.0575 87.2863 36.0717L94.8804 36.4143L94.9375 36.5856L88.8851 41.6245C88.5139 41.9814 88.3712 42.3097 88.4568 42.6523ZM93.4101 36.5856L89.6702 36.4286L90.5124 38.9409L93.4101 36.5856Z" fill="#292F36"/>
<path d="M89.4988 53.5724C89.6416 53.5153 89.7129 53.4439 89.7129 53.344C89.7129 53.2869 89.6987 53.2441 89.6701 53.2013C89.6416 53.1584 89.5845 53.0728 89.4988 52.9586C89.2847 52.6874 89.1277 52.4019 89.0135 52.1164C88.8993 51.8309 88.8422 51.5026 88.8422 51.1457C88.8279 50.3464 88.9849 49.6612 89.299 49.0759C89.6273 48.4907 90.0841 48.0481 90.7122 47.7341C91.326 47.4201 92.0683 47.263 92.939 47.2488C93.8383 47.2345 94.6234 47.3772 95.2943 47.6913C95.9652 48.0053 96.4934 48.4336 96.8645 49.0045C97.2356 49.5755 97.4355 50.2179 97.4355 50.9316C97.4355 51.2456 97.4069 51.5311 97.3498 51.7738C97.2927 52.0165 97.2071 52.2306 97.1072 52.4162C97.0072 52.6017 96.8788 52.8158 96.7075 53.0442C96.6361 53.1442 96.5933 53.2298 96.5933 53.2869C96.5933 53.4297 96.8359 53.5296 97.307 53.5724V53.8436C96.8074 53.8151 95.9081 53.8151 94.6234 53.8436V53.5724C95.0373 53.501 95.3799 53.4154 95.6512 53.3297C95.9224 53.2441 96.1508 53.1156 96.3506 52.9586C96.6218 52.7302 96.8502 52.4304 97.0072 52.0593C97.1643 51.6882 97.2356 51.317 97.2356 50.9173C97.2213 50.4034 97.0501 49.9609 96.7075 49.5755C96.3649 49.1901 95.8795 48.9046 95.2657 48.6905C94.6377 48.4907 93.9239 48.3907 93.096 48.405C92.1539 48.4193 91.3973 48.5335 90.7978 48.7476C90.1983 48.9617 89.77 49.2758 89.4846 49.6897C89.1991 50.1037 89.0706 50.6318 89.0849 51.2742C89.0991 51.7453 89.2276 52.1449 89.4703 52.4875C89.5702 52.6303 89.6558 52.7159 89.7558 52.7587C89.8414 52.8016 89.9699 52.8158 90.1269 52.8158L91.2546 52.8016C91.5829 52.8016 91.8113 52.7587 91.9683 52.7016C92.1111 52.6445 92.2253 52.5304 92.2681 52.3591C92.3252 52.202 92.3537 51.9451 92.3537 51.6025H92.5821C92.5679 51.9879 92.5536 52.5304 92.5679 53.2584C92.5821 53.8008 92.5964 54.2147 92.625 54.4717H92.3966C92.3823 54.2861 92.3395 54.1577 92.2966 54.0863C92.2538 54.0149 92.1539 53.9578 92.0254 53.9293C91.8969 53.9007 91.6828 53.8864 91.3831 53.9007L89.0706 53.9435V53.7151C89.1991 53.658 89.3561 53.6295 89.4988 53.5724Z" fill="#292F36"/>
<path d="M87.8002 65.72C87.3863 65.5915 86.9009 65.463 86.3442 65.3488C86.5298 64.8492 86.801 64.007 87.1864 62.8079C87.6432 61.3805 87.9715 60.2956 88.1714 59.5676L88.3998 59.639C88.3284 59.9102 88.2998 60.1101 88.2998 60.2528C88.3141 60.3955 88.3712 60.4955 88.4854 60.5811C88.5996 60.6668 88.7995 60.7524 89.0707 60.8381L94.5949 62.5796C94.8804 62.6652 95.0803 62.708 95.223 62.708C95.3657 62.708 95.4799 62.6509 95.5656 62.5367C95.6512 62.4225 95.7369 62.237 95.8368 61.98L96.0652 62.0514C95.8083 62.7794 95.4657 63.85 95.0089 65.2774C94.6663 66.3623 94.4236 67.1474 94.3094 67.6185C93.8384 67.4186 93.4101 67.2473 93.0104 67.1331C92.725 67.0475 92.4823 66.9761 92.311 66.9476L92.3966 66.6906C92.8962 66.7905 93.2817 66.8334 93.5386 66.8334C93.7955 66.8334 94.0097 66.7477 94.181 66.5764C94.3522 66.4194 94.495 66.1339 94.6235 65.7485L94.909 64.8207C94.9946 64.5494 95.0374 64.3496 95.0232 64.2211C95.0089 64.0927 94.9661 63.9785 94.8519 63.8928C94.7377 63.8072 94.5521 63.7215 94.2666 63.6359L91.6401 62.8079L91.4117 63.5502C91.2975 63.9214 91.326 64.2069 91.5116 64.4067C91.6972 64.6065 91.897 64.7493 92.1254 64.8492C92.3538 64.9491 92.4966 65.0205 92.5537 65.049L92.468 65.306C92.1112 65.1632 91.7686 65.0348 91.426 64.9349L90.8978 64.7778C90.5267 64.6636 89.9842 64.5066 89.2991 64.3496L89.3847 64.0927C89.4418 64.1069 89.6274 64.1355 89.9414 64.2069C90.2555 64.2639 90.5267 64.2354 90.7408 64.1212C90.9549 64.007 91.0977 63.7929 91.1976 63.4931L91.426 62.7508L88.7424 61.9087C88.4569 61.823 88.257 61.7802 88.1143 61.7802C87.9715 61.7802 87.8573 61.8373 87.786 61.9515C87.7003 62.0657 87.6147 62.2512 87.529 62.5225L87.2721 63.3361C87.1293 63.8072 87.0722 64.1783 87.1293 64.4495C87.1722 64.735 87.3149 64.9634 87.5576 65.1632C87.8002 65.3488 88.1714 65.5629 88.671 65.7913L88.5853 66.0483C88.414 65.9198 88.1428 65.8342 87.8002 65.72Z" fill="#292F36"/>
<path d="M83.7317 83.2349C83.7888 83.1064 83.7745 82.978 83.7174 82.8495C83.6603 82.721 83.5175 82.564 83.3034 82.3499L79.1067 78.3387C78.8926 78.1389 78.7213 78.0104 78.5928 77.9533C78.4644 77.8962 78.3359 77.8962 78.2074 77.9533C78.0789 78.0104 77.9219 78.1389 77.7221 78.3387L77.5508 78.1817C77.822 77.939 78.1646 77.5822 78.6071 77.1397C79.0639 76.6543 79.4065 76.2832 79.6206 76.0405L79.7919 76.1975C79.6063 76.4117 79.4921 76.583 79.435 76.6972C79.3779 76.8256 79.3922 76.9541 79.4493 77.0826C79.5064 77.211 79.6491 77.3681 79.8633 77.5822L84.06 81.5933C84.2741 81.7932 84.4454 81.9216 84.5738 81.9787C84.7023 82.0358 84.8308 82.0358 84.9593 81.9787C85.0877 81.9216 85.2448 81.7932 85.4446 81.5933L85.6159 81.7503C85.3732 81.9645 85.0164 82.3213 84.5596 82.8067C84.1171 83.2634 83.7888 83.6346 83.5604 83.9058L83.3891 83.7488C83.5604 83.5347 83.6746 83.3634 83.7317 83.2349Z" fill="#292F36"/>
<path d="M71.8411 91.9422C71.9268 91.8138 71.941 91.6853 71.9125 91.5283C71.8839 91.3713 71.784 91.1714 71.627 90.9002L68.0869 84.8906L68.3153 84.7479L76.3947 88.7876L73.2686 83.4774C73.1116 83.2205 72.9831 83.0349 72.8546 82.935C72.7261 82.8351 72.5834 82.7923 72.4264 82.8065C72.2694 82.8208 72.0552 82.9065 71.784 83.0492L71.6555 82.8494C71.9125 82.7352 72.2551 82.5353 72.6976 82.2784C73.0973 82.0357 73.397 81.8501 73.6112 81.6931L73.7254 81.893C73.497 82.0357 73.3399 82.1784 73.2686 82.3069C73.1829 82.4354 73.1687 82.5639 73.1972 82.7209C73.2257 82.8779 73.3257 83.0777 73.4827 83.349L76.3661 88.2451C76.5089 88.5021 76.6374 88.6734 76.7516 88.759C76.8658 88.8447 76.98 88.8875 77.1227 88.8589C77.2512 88.8304 77.451 88.759 77.6937 88.6305L77.8079 88.8304C77.5795 88.9446 77.2654 89.1159 76.8515 89.3585C76.5517 89.5298 76.2948 89.7011 76.0807 89.8439L69.3002 86.4608L71.8411 90.7717C71.9981 91.0287 72.1266 91.2142 72.2551 91.3142C72.3693 91.4141 72.512 91.4569 72.6833 91.4426C72.8546 91.4283 73.0687 91.3427 73.3399 91.2L73.4541 91.3998C73.1972 91.514 72.8546 91.7138 72.4121 91.9708C72.0124 92.2134 71.7126 92.399 71.4985 92.556L71.3843 92.3562C71.5985 92.1992 71.7555 92.0564 71.8411 91.9422Z" fill="#292F36"/>
<path d="M63.9901 93.8123C64.0901 94.2548 64.2185 94.7401 64.3898 95.254C63.7475 95.3682 62.6769 95.5966 61.1638 95.9106C59.6507 96.239 58.5944 96.4816 57.9663 96.6386C57.8949 96.0819 57.8235 95.5966 57.7236 95.1541C57.638 94.7687 57.5666 94.4546 57.481 94.2262L57.7379 94.1691C57.9235 94.7544 58.0948 95.1684 58.2518 95.4396C58.4088 95.7108 58.6086 95.8821 58.8656 95.9677C59.1225 96.0534 59.4937 96.0391 59.9647 95.9392L60.5785 95.8107L59.1796 89.3158C59.1083 89.0018 59.0369 88.7734 58.937 88.6449C58.837 88.5164 58.7228 88.4308 58.5515 88.4165C58.3803 88.388 58.1233 88.4165 57.7807 88.4736L57.7379 88.2452C58.1376 88.1881 58.7086 88.0739 59.4223 87.9169C60.1788 87.7456 60.7498 87.6171 61.1067 87.5172L61.1495 87.7456C60.8069 87.8313 60.5785 87.9169 60.4358 88.0025C60.293 88.0882 60.2074 88.2167 60.1788 88.3737C60.1503 88.5307 60.1646 88.7734 60.2359 89.0874L61.6348 95.5823L62.2487 95.4539C62.7197 95.3539 63.0623 95.2112 63.2621 95.0256C63.462 94.84 63.5762 94.5974 63.6047 94.2976C63.6333 93.9978 63.619 93.5411 63.5476 92.9415L63.8046 92.8844C63.8474 93.1128 63.9045 93.4269 63.9901 93.8123Z" fill="#292F36"/>
<path d="M45.0478 89.8011C45.0906 89.3586 45.1048 88.859 45.1048 88.3022C45.633 88.3736 46.518 88.4593 47.7742 88.5735C49.2587 88.7019 50.3864 88.8019 51.1573 88.8447L51.143 89.0731C50.8575 89.0588 50.6576 89.0731 50.5292 89.1159C50.4007 89.1587 50.3008 89.2301 50.2437 89.3586C50.1866 89.487 50.1438 89.7012 50.1152 89.9866L49.6013 95.7678C49.5728 96.0533 49.5871 96.2674 49.6156 96.4102C49.6442 96.5529 49.7298 96.6528 49.8583 96.7099C49.9867 96.767 50.1866 96.8241 50.4578 96.8527L50.4435 97.0811C49.687 96.9954 48.5593 96.8812 47.0747 96.7528C45.9328 96.6528 45.1191 96.5958 44.6338 96.5672C44.7337 96.0676 44.8051 95.6108 44.8336 95.1968C44.8622 94.8971 44.8765 94.6544 44.8622 94.4688L45.1334 94.4974C45.1477 95.0113 45.1762 95.3824 45.2476 95.6394C45.3047 95.8963 45.4332 96.0819 45.633 96.2103C45.8186 96.3388 46.1326 96.4245 46.5323 96.453L47.503 96.5386C47.7885 96.5672 47.9883 96.5529 48.1168 96.5244C48.2452 96.4958 48.3452 96.4102 48.4023 96.2817C48.4594 96.1532 48.5022 95.9391 48.5307 95.6536L48.7734 92.9129L48.0026 92.8415C47.6172 92.813 47.346 92.8986 47.1889 93.127C47.0462 93.3554 46.932 93.5838 46.8892 93.8265C46.8321 94.0692 46.8035 94.2262 46.7892 94.2975L46.518 94.269C46.5751 93.8836 46.618 93.5267 46.6608 93.1699L46.7036 92.6132C46.7321 92.2135 46.7607 91.671 46.7892 90.9573L47.0605 90.9859C47.0605 91.043 47.0747 91.2285 47.0747 91.5568C47.089 91.8852 47.1604 92.1421 47.3317 92.3134C47.4887 92.499 47.7314 92.5989 48.0454 92.6274L48.8162 92.6988L49.0589 89.901C49.0874 89.6155 49.0732 89.4014 49.0446 89.2586C49.0161 89.1302 48.9304 89.0302 48.802 88.9732C48.6735 88.9161 48.4736 88.8732 48.2024 88.8447L47.346 88.7733C46.8606 88.7305 46.4895 88.759 46.2183 88.8732C45.9613 88.9731 45.7615 89.173 45.6187 89.4442C45.476 89.7154 45.3618 90.1294 45.2476 90.6718L44.9764 90.6433C44.9764 90.4292 45.0049 90.1437 45.0478 89.8011Z" fill="#292F36"/>
<path d="M33.8137 84.5053C34.0278 84.4625 34.2705 84.5053 34.5274 84.6195C34.8272 84.748 35.0271 84.9335 35.1413 85.1762C35.2555 85.4331 35.2697 85.79 35.1984 86.2611L34.9842 87.4316C34.9129 87.8455 34.87 88.1596 34.8558 88.4023C34.8415 88.6306 34.8986 88.8448 34.9985 89.0303C35.0984 89.2159 35.284 89.3586 35.5552 89.4728L36.583 89.9011L37.625 87.4173C37.7392 87.1461 37.7963 86.9462 37.8106 86.8035C37.8249 86.6608 37.7678 86.5466 37.6678 86.4466C37.5679 86.3467 37.3966 86.2468 37.1397 86.1326L37.2253 85.9185C37.5536 86.0755 37.9962 86.2753 38.5814 86.518C39.1952 86.775 39.6663 86.9605 39.9803 87.0604L39.8947 87.2746C39.6235 87.1746 39.4236 87.1318 39.2951 87.1175C39.1524 87.1175 39.0382 87.1604 38.9526 87.2746C38.8526 87.3745 38.7527 87.5601 38.6385 87.8313L36.3974 93.1842C36.2832 93.4554 36.2261 93.6553 36.2118 93.798C36.1976 93.9408 36.2547 94.055 36.3546 94.1549C36.4545 94.2548 36.6258 94.3547 36.8827 94.4832L36.7971 94.6973C36.4973 94.5546 36.0691 94.3547 35.4981 94.1121C35.2126 93.9979 34.9129 93.8694 34.5703 93.7267C34.2277 93.5839 33.9993 93.4983 33.8708 93.4412C33.3141 93.1985 32.8716 92.9273 32.5433 92.599C32.215 92.2707 32.0294 91.9281 31.9438 91.5569C31.8581 91.1858 31.9009 90.8289 32.058 90.4721C32.1722 90.1866 32.3577 89.9296 32.6147 89.7012C32.8716 89.4728 33.1999 89.3015 33.5996 89.2159C33.9993 89.1303 34.4846 89.1445 35.0128 89.273L34.8843 89.2016C34.5845 89.0161 34.3562 88.8305 34.2134 88.6306C34.0707 88.4451 33.9707 88.231 33.9422 88.0026C33.8994 87.7742 33.9136 87.4887 33.9707 87.1461L34.1706 85.9328C34.2134 85.6901 34.242 85.5045 34.242 85.3618C34.242 85.219 34.2277 85.1048 34.1849 85.0192C34.142 84.9335 34.0707 84.8622 33.9707 84.8336C33.8565 84.7765 33.7424 84.7765 33.6424 84.8051C33.5425 84.8336 33.3998 84.905 33.2142 85.0049L33.1 84.8193C33.3569 84.6623 33.5996 84.5481 33.8137 84.5053ZM34.5274 89.587C34.1849 89.6299 33.9136 89.7583 33.6995 89.9724C33.4854 90.1866 33.2998 90.4721 33.1428 90.8432C32.9002 91.4285 32.8431 91.9423 33.0001 92.3563C33.1571 92.7703 33.5425 93.1128 34.1849 93.3841C34.4133 93.484 34.5845 93.5268 34.7273 93.5125C34.8558 93.5125 34.97 93.4554 35.0699 93.3412C35.1698 93.227 35.2697 93.0415 35.3696 92.7845L36.4831 90.1295L35.7551 89.8297C35.284 89.6299 34.87 89.5442 34.5274 89.587Z" fill="#292F36"/>
<path d="M22.6798 86.4466C22.8083 86.4894 22.9367 86.4609 23.0509 86.3895C23.1651 86.3181 23.3222 86.1611 23.5077 85.9327L27.0906 81.3649C27.2762 81.1365 27.3904 80.9509 27.4332 80.8225C27.4761 80.694 27.4618 80.5655 27.3904 80.4513C27.319 80.3371 27.1763 80.1801 26.9622 79.9945L27.1049 79.809C27.3761 80.0516 27.7473 80.3657 28.2469 80.7511C28.775 81.165 29.1747 81.4648 29.4459 81.6504L29.3032 81.8359C29.0748 81.6647 28.8892 81.5647 28.7608 81.5362C28.6323 81.4934 28.5038 81.5076 28.3896 81.5933C28.2754 81.6646 28.1184 81.8217 27.9328 82.0501L24.3499 86.6179C24.1644 86.8463 24.0502 87.0319 24.0073 87.1603C23.9645 87.2888 23.9788 87.4173 24.0502 87.5315C24.1215 87.6457 24.2643 87.8027 24.4784 87.9883L24.3357 88.1738C24.093 87.9597 23.7076 87.6457 23.1794 87.2174C22.6798 86.832 22.2801 86.5323 21.9946 86.3324L22.1374 86.1469C22.38 86.3039 22.5513 86.4038 22.6798 86.4466Z" fill="#292F36"/>
<path d="M13.4581 76.2832C13.401 75.6409 13.5437 74.9985 13.872 74.3847C14.2146 73.7566 14.7285 73.1999 15.4422 72.6717C16.1417 72.1721 16.8411 71.8438 17.5691 71.7154C18.2971 71.5869 18.968 71.6297 19.5961 71.8724C20.2242 72.115 20.7524 72.529 21.1663 73.1143C21.6088 73.7138 21.8515 74.3419 21.9086 74.9842C21.9657 75.6266 21.823 76.2689 21.4946 76.8827C21.1521 77.5108 20.6382 78.0675 19.9244 78.5957C19.225 79.0953 18.5255 79.4236 17.7975 79.5521C17.0838 79.6805 16.3986 79.6377 15.7706 79.3951C15.1425 79.1524 14.6143 78.7384 14.2004 78.1674C13.7578 77.5536 13.5152 76.9256 13.4581 76.2832ZM15.5993 78.8241C16.0989 78.924 16.6698 78.8812 17.2979 78.6813C17.926 78.4815 18.5541 78.1532 19.2107 77.6678C19.8673 77.1968 20.3812 76.6829 20.7381 76.1405C21.1092 75.598 21.3091 75.0556 21.3376 74.5417C21.3804 74.0278 21.252 73.571 20.9808 73.1856C20.681 72.7859 20.2956 72.529 19.7817 72.4291C19.2821 72.3292 18.7111 72.372 18.083 72.5718C17.4549 72.7717 16.8269 73.1 16.1702 73.571C15.5136 74.0421 14.9997 74.556 14.6429 75.1127C14.2717 75.6551 14.0719 76.1833 14.0291 76.7114C13.9862 77.2253 14.1147 77.6821 14.3859 78.0675C14.6857 78.4672 15.0854 78.7242 15.5993 78.8241Z" fill="#292F36"/>
<path d="M14.5572 59.0967C14.7285 59.2252 14.857 59.4393 14.9426 59.7248C15.0425 60.0246 15.0282 60.3101 14.9141 60.5527C14.7999 60.8097 14.5286 61.0523 14.1147 61.295L13.0726 61.8803C12.7158 62.0944 12.4446 62.2657 12.259 62.4084C12.0734 62.5512 11.9449 62.7225 11.8736 62.9223C11.8022 63.1222 11.8022 63.3506 11.8879 63.636L12.2162 64.7066L14.7856 63.9073C15.0711 63.8216 15.2566 63.736 15.3708 63.6503C15.485 63.5647 15.5421 63.4505 15.5564 63.322C15.5707 63.1935 15.5279 62.9794 15.4565 62.7082L15.6849 62.6368C15.7705 62.9794 15.899 63.4647 16.0988 64.0643C16.2987 64.7066 16.4557 65.1777 16.5699 65.4775L16.3415 65.5488C16.2416 65.2776 16.1559 65.092 16.0703 64.9921C15.9846 64.8922 15.8704 64.8208 15.7277 64.8208C15.585 64.8208 15.3708 64.8494 15.0996 64.9493L9.5611 66.6622C9.27561 66.7479 9.09004 66.8335 8.97585 66.9192C8.86165 67.0048 8.80455 67.119 8.79028 67.2475C8.776 67.3902 8.81883 67.5901 8.8902 67.8613L8.66181 67.9327C8.59043 67.6186 8.46196 67.1619 8.27639 66.5623C8.19075 66.2768 8.07655 65.9485 7.96235 65.6059C7.84816 65.2633 7.76251 65.0207 7.71969 64.8922C7.53412 64.3069 7.47702 63.7931 7.51984 63.3363C7.56267 62.8795 7.70541 62.5084 7.93381 62.2086C8.1622 61.9088 8.46196 61.709 8.8331 61.5948C9.11859 61.5091 9.43263 61.4806 9.77522 61.5234C10.1178 61.5662 10.4461 61.709 10.7887 61.9659C11.1313 62.2229 11.4168 62.594 11.6595 63.0936L11.6452 62.9509C11.6024 62.594 11.5881 62.3085 11.6452 62.0658C11.7023 61.8232 11.8022 61.6233 11.9449 61.452C12.102 61.2807 12.3304 61.0952 12.6301 60.9239L13.6864 60.2958C13.9006 60.1816 14.0719 60.0674 14.1718 59.9818C14.2717 59.8961 14.3573 59.8105 14.4002 59.7248C14.443 59.6392 14.443 59.5392 14.4144 59.4393C14.3716 59.3109 14.3145 59.2252 14.2289 59.1681C14.1432 59.111 14.0005 59.0396 13.8006 58.9683L13.872 58.7542C14.1575 58.8541 14.4002 58.9683 14.5572 59.0967ZM11.1456 62.9223C10.9029 62.6939 10.6174 62.5655 10.3177 62.5369C10.0179 62.5084 9.6753 62.5512 9.28989 62.6796C8.67608 62.8652 8.26212 63.165 8.03373 63.5504C7.80533 63.9358 7.80533 64.464 8.00518 65.1063C8.07655 65.3347 8.1622 65.506 8.24784 65.6059C8.33349 65.7058 8.46196 65.7629 8.60471 65.7629C8.74745 65.7629 8.96157 65.7201 9.21851 65.6488L11.9592 64.7923L11.7308 64.0357C11.5881 63.5218 11.3882 63.1507 11.1456 62.9223Z" fill="#292F36"/>
<path d="M13.4583 45.5502C14.0007 45.3075 14.329 44.8507 14.4718 44.1655C14.5146 43.9086 14.5146 43.6516 14.4432 43.409C14.3718 43.1663 14.2434 42.9522 14.0435 42.7666C13.8437 42.5811 13.5725 42.4526 13.2156 42.3955C12.9158 42.3384 12.6446 42.3669 12.3877 42.4669C12.1307 42.5668 11.8738 42.7238 11.6311 42.9379C11.3885 43.152 11.103 43.4375 10.7889 43.7944C10.4321 44.1941 10.118 44.5224 9.8468 44.7508C9.57559 44.9935 9.27582 45.1647 8.94751 45.2932C8.61919 45.4217 8.24806 45.436 7.83409 45.3646C7.40586 45.2789 7.04899 45.1219 6.79205 44.865C6.53511 44.608 6.34954 44.3083 6.2639 43.9514C6.17825 43.5945 6.17825 43.2234 6.24962 42.8237C6.29244 42.5811 6.34954 42.3955 6.42092 42.2242C6.49229 42.0529 6.56366 41.9244 6.64931 41.8245C6.73496 41.7246 6.8206 41.6104 6.9348 41.4962C7.07754 41.3392 7.14892 41.225 7.17747 41.1393C7.19174 41.068 7.16319 41.0109 7.09182 40.9538C7.02045 40.8967 6.89198 40.8538 6.72068 40.7967L6.7635 40.5398C7.20601 40.654 7.97684 40.8253 9.10453 41.0394L9.0617 41.2963C8.66202 41.2535 8.29088 41.2678 7.91974 41.3534C7.56288 41.4248 7.24884 41.5818 6.9919 41.8245C6.73495 42.0529 6.56366 42.3812 6.49229 42.7809C6.43519 43.0521 6.44946 43.2948 6.52084 43.5374C6.59221 43.7801 6.72068 43.9657 6.89198 44.1227C7.07754 44.2797 7.29166 44.3796 7.5486 44.4367C7.96257 44.5081 8.31943 44.451 8.61919 44.2512C8.91896 44.0513 9.20445 43.7944 9.47567 43.4946C9.74688 43.1949 9.91818 42.995 10.0181 42.8951C10.4178 42.4669 10.7461 42.1385 11.0173 41.8959C11.2885 41.6532 11.5883 41.4819 11.9166 41.3677C12.2449 41.2535 12.6018 41.2392 12.9872 41.3106C13.4583 41.3963 13.8437 41.5818 14.1292 41.8531C14.4147 42.1385 14.6002 42.4669 14.7001 42.8665C14.8001 43.2662 14.8001 43.6945 14.7144 44.1513C14.643 44.5224 14.5574 44.8079 14.4289 45.0363C14.3147 45.2647 14.1577 45.4645 13.9864 45.6501C13.8437 45.8071 13.7723 45.9213 13.7438 46.0069C13.7295 46.0783 13.758 46.1354 13.8294 46.1925C13.9008 46.2496 14.0292 46.3067 14.2005 46.3495L14.1577 46.6065C13.7438 46.4923 12.8302 46.3067 11.417 46.0498L11.4598 45.7928C12.2592 45.8642 12.9158 45.7928 13.4583 45.5502Z" fill="#292F36"/>
<path d="M10.6321 33.5165C10.2324 33.3024 9.7756 33.1026 9.26172 32.9027C9.57576 32.346 10.1039 31.3754 10.8176 29.9907C11.5314 28.6204 12.031 27.6497 12.3022 27.0645C12.7733 27.3642 13.2015 27.6212 13.5869 27.821C13.9295 28.0066 14.2293 28.135 14.4577 28.235L14.3292 28.4776C13.7582 28.2492 13.33 28.1065 13.0302 28.0637C12.7304 28.0066 12.4592 28.0637 12.2308 28.2064C12.0024 28.3492 11.774 28.6347 11.5599 29.0629L11.2744 29.6339L17.1698 32.7029C17.4553 32.8599 17.6837 32.9313 17.8407 32.9456C17.9977 32.9598 18.1405 32.917 18.269 32.8028C18.3974 32.6886 18.5402 32.4745 18.7115 32.1747L18.9256 32.2889C18.7115 32.6458 18.4402 33.1454 18.0977 33.802C17.7408 34.4872 17.4839 35.0154 17.3268 35.3437L17.1127 35.2295C17.2555 34.9154 17.3554 34.6728 17.3697 34.5158C17.3982 34.3445 17.3554 34.2017 17.2412 34.0733C17.127 33.9448 16.9414 33.8163 16.6559 33.6593L10.7605 30.576L10.4608 31.1327C10.2324 31.5609 10.1325 31.9035 10.1467 32.1747C10.161 32.446 10.2752 32.6886 10.4893 32.9027C10.7034 33.1169 11.0603 33.4023 11.5742 33.7307L11.4457 33.9733C11.2602 33.8591 10.9747 33.7021 10.6321 33.5165Z" fill="#292F36"/>
<path d="M20.7095 17.1153C20.9522 16.8726 21.152 16.6442 21.2947 16.4729L21.466 16.6442C21.3804 16.7727 21.3376 16.9582 21.3518 17.1724C21.3661 17.3865 21.4232 17.6862 21.5374 18.0431L22.8364 21.9115L24.3495 23.4103C24.5636 23.6102 24.7206 23.7529 24.8491 23.81C24.9776 23.8671 25.106 23.8671 25.2345 23.81C25.363 23.7529 25.52 23.6244 25.7341 23.4389L25.9054 23.6102C25.6342 23.8528 25.2773 24.1954 24.8348 24.6379C24.3638 25.109 24.0212 25.4801 23.8071 25.7228L23.6358 25.5515C23.8213 25.3374 23.9498 25.1804 24.0069 25.0519C24.064 24.9234 24.064 24.795 23.9926 24.6665C23.9355 24.538 23.7928 24.3667 23.5929 24.1669L22.3368 22.925L17.5691 21.5261C17.2836 21.4404 17.0695 21.4119 16.9267 21.4262C16.784 21.4404 16.6841 21.4833 16.6127 21.5546L16.4414 21.3833C16.6698 21.1835 16.9267 20.9551 17.1837 20.6839C17.7118 20.1415 18.0973 19.756 18.3114 19.4991L18.4827 19.6704C18.0973 20.0558 18.0116 20.3556 18.2257 20.5697C18.3114 20.6553 18.4256 20.7124 18.5969 20.7695L22.608 22.0114L21.5517 18.8567C21.3947 18.4 21.2377 18.0859 21.0664 17.9289C20.9093 17.7719 20.738 17.7291 20.5525 17.7862C20.3669 17.8433 20.1528 17.986 19.8958 18.2287L19.7245 18.0574C20.0671 17.7433 20.3812 17.4293 20.7095 17.1153Z" fill="#292F36"/>
<path d="M29.346 11.3627C29.2603 11.4627 29.2175 11.5911 29.246 11.7339C29.2746 11.8766 29.346 12.0765 29.4887 12.3334L32.2437 17.4437C32.3864 17.7006 32.5006 17.8719 32.6148 17.9718C32.7148 18.0718 32.8432 18.1003 32.9717 18.086C33.1002 18.0718 33.3 17.9861 33.5427 17.8576L34.2992 17.4437C34.7275 17.2153 35.0272 16.9726 35.1843 16.73C35.3413 16.4873 35.3984 16.2161 35.3555 15.8878C35.3127 15.5594 35.1843 15.1455 34.9559 14.603L35.1985 14.4746C35.2984 14.703 35.4412 14.9885 35.6268 15.331C35.8409 15.7165 36.0978 16.1447 36.4119 16.6158C35.9408 16.8442 35.1414 17.2581 34.0423 17.8576C32.729 18.5714 31.7298 19.1138 31.0732 19.4992L30.959 19.2994C31.2017 19.1566 31.373 19.0282 31.4586 18.9282C31.5442 18.8283 31.5871 18.6998 31.5585 18.5571C31.53 18.4143 31.4586 18.2145 31.3159 17.9576L28.5323 12.8473C28.3896 12.5903 28.2754 12.419 28.1612 12.3191C28.0613 12.2192 27.9328 12.1907 27.8043 12.2049C27.6616 12.2192 27.476 12.2906 27.2191 12.419L27.1191 12.2049C27.4189 12.0765 27.8614 11.8481 28.4467 11.5197C29.0034 11.22 29.4316 10.9773 29.7314 10.7917L29.8456 10.9916C29.6029 11.1343 29.4459 11.2628 29.346 11.3627Z" fill="#292F36"/>
<path d="M46.7323 12.2761C46.818 12.7043 46.9465 13.1897 47.1035 13.7321C46.5753 13.8178 45.7046 13.9748 44.477 14.2174C43.0067 14.5029 41.9075 14.7313 41.151 14.9026L41.1082 14.6742C41.3794 14.6029 41.5792 14.5458 41.6934 14.4601C41.8076 14.3887 41.879 14.2745 41.8933 14.1461C41.9075 14.0033 41.8933 13.7892 41.8362 13.5037L40.7228 7.80817C40.6657 7.52268 40.6086 7.32284 40.5229 7.19437C40.4373 7.0659 40.3516 6.99452 40.2089 6.98025C40.0804 6.9517 39.8663 6.96597 39.5951 7.0088L39.5522 6.78041C40.3088 6.65194 41.4222 6.45209 42.8782 6.1666C44.0059 5.93821 44.8053 5.78119 45.2621 5.66699C45.3049 6.18088 45.3763 6.63766 45.4476 7.03735C45.5047 7.33711 45.5618 7.56551 45.6189 7.7368L45.362 7.7939C45.205 7.30856 45.0622 6.9517 44.9337 6.72331C44.8053 6.49492 44.6197 6.35217 44.4056 6.2808C44.1772 6.20942 43.8774 6.20942 43.4635 6.29507L42.5071 6.48064C42.2359 6.53774 42.036 6.59484 41.9218 6.66621C41.8076 6.73758 41.7363 6.8375 41.7077 6.98025C41.6934 7.12299 41.7077 7.33711 41.7648 7.6226L42.293 10.3348L43.0495 10.1777C43.4349 10.1064 43.6633 9.93508 43.749 9.67814C43.8346 9.4212 43.8632 9.17853 43.8489 8.93586C43.8346 8.69319 43.8203 8.53617 43.8203 8.4648L44.0773 8.4077C44.1201 8.79312 44.1772 9.14998 44.2486 9.49257L44.3628 10.035C44.4341 10.4204 44.5626 10.9628 44.7482 11.648L44.4912 11.7051C44.477 11.648 44.4199 11.4767 44.3199 11.1627C44.22 10.8486 44.0773 10.6345 43.8632 10.5061C43.649 10.3776 43.4064 10.349 43.0923 10.4061L42.3358 10.5489L42.8782 13.3039C42.9353 13.5894 42.9924 13.7892 43.0638 13.9177C43.1352 14.0319 43.2351 14.1032 43.3778 14.1318C43.5063 14.1461 43.7204 14.1318 43.9916 14.0747L44.8338 13.9034C45.3049 13.8035 45.6617 13.675 45.8901 13.5037C46.1185 13.3324 46.247 13.0898 46.3041 12.79C46.3612 12.4902 46.3612 12.062 46.3184 11.5053L46.5753 11.4482C46.6181 11.6623 46.661 11.9335 46.7323 12.2761Z" fill="#292F36"/>
<path d="M37.1108 66.7905C36.4542 65.9054 35.8832 64.9348 35.3836 63.8642C34.884 62.7936 34.4843 61.7087 34.1845 60.5953C33.5279 55.6991 33.5136 50.9457 34.1274 46.335C34.7412 41.7244 35.7405 37.1851 37.1108 32.7029C37.3392 32.2033 37.8388 31.9606 38.6096 31.9606C39.3805 31.9606 40.137 32.1319 40.9078 32.4745C41.6787 32.8171 42.3068 33.2738 42.8064 33.8448C43.306 34.4158 43.4202 35.0153 43.1489 35.6291C42.7207 36.5427 42.3067 37.7846 41.8928 39.3262C41.4788 40.8822 41.0649 42.5951 40.6937 44.4651C40.3083 46.335 39.98 48.3049 39.6945 50.3462C39.409 52.3874 39.1949 54.3573 39.0664 56.2273C38.938 58.0973 38.9094 59.7959 38.9808 61.309C39.0522 62.8221 39.2805 64.0212 39.666 64.8919C41.4646 62.4795 43.1061 59.9815 44.6049 57.3978C46.1038 54.8141 47.5027 52.2019 48.8159 49.5325C50.1292 46.8775 51.3854 44.1939 52.5701 41.4674C53.7549 38.7553 54.9254 36.0717 56.0674 33.4309C56.6384 32.0891 57.2094 30.6759 57.7661 29.1913C58.3228 27.6925 59.0508 26.4221 59.9786 25.3515C60.364 25.0089 60.6638 24.8947 60.8636 25.0089C61.0778 25.1231 61.2205 25.3372 61.2919 25.6655C61.3633 25.9938 61.4061 26.3364 61.4061 26.6933C61.4061 27.0501 61.4061 27.3356 61.4061 27.5212C61.1349 29.277 60.9065 31.0185 60.7209 32.7457C60.5353 34.4729 60.1214 36.1288 59.5218 37.7418C58.5226 40.2684 57.5091 42.7664 56.4528 45.2645C55.3965 47.7482 54.2688 50.2034 53.0697 52.6158C51.8707 55.0282 50.5574 57.3693 49.1728 59.6389C47.7739 61.9228 46.2608 64.0926 44.6049 66.1481C43.306 67.7897 42.007 68.6604 40.7366 68.7603C39.409 68.8745 38.2242 68.2036 37.1108 66.7905Z" fill="#292F36" stroke="white" stroke-miterlimit="10"/>
<path d="M60.7495 60.3098C59.9787 59.2392 59.2221 58.1543 58.4799 57.0409C57.7376 55.9275 57.3665 54.7142 57.3665 53.3724C57.3665 51.8878 57.7947 50.4746 58.6512 49.1471C59.5076 47.8338 60.4926 46.7632 61.606 45.9639C62.0628 45.6641 62.5338 45.4072 63.0049 45.2216C63.4759 45.036 63.9898 45.0503 64.5323 45.2787C64.7607 45.3929 65.0033 45.4785 65.246 45.5356C65.4887 45.5927 65.7171 45.6641 65.9026 45.7355C66.0882 45.8068 66.3023 45.921 66.5307 46.0781C66.7591 46.2351 66.8733 46.4349 66.8733 46.7061C66.8733 47.7767 66.9018 48.6475 66.9589 49.3184C67.016 49.9893 67.1017 50.5603 67.2159 51.0456C67.3301 51.5309 67.4443 51.9449 67.5585 52.3018C67.6727 52.6729 67.7869 53.0583 67.9011 53.4723C67.9724 53.8577 67.9582 54.186 67.844 54.4429C67.7298 54.7142 67.4443 54.7427 66.9875 54.5571C66.1453 54.2574 65.5172 53.6436 65.1175 52.7157C64.7178 51.7879 64.4181 50.96 64.2325 50.1891C64.1897 50.0321 64.104 49.7752 63.947 49.3898C63.79 49.0043 63.7043 48.7331 63.6615 48.5904C63.3618 48.519 62.9906 48.6189 62.5767 48.9044C62.1627 49.1899 61.7773 49.5896 61.4632 50.0749C61.1349 50.5745 60.9208 51.1455 60.8352 51.8022C60.7352 52.4588 60.8637 53.1011 61.2063 53.7578C61.3633 53.9862 61.5774 54.2716 61.8629 54.5857C62.1484 54.914 62.4339 55.2423 62.7194 55.5849C63.0049 55.9275 63.2904 56.2701 63.5759 56.5841C63.8614 56.8982 64.104 57.1694 64.2896 57.3549C64.518 57.5833 64.675 57.7118 64.7464 57.7261C64.8178 57.7404 65.0176 57.6975 65.3174 57.5833C65.7028 57.3978 66.288 57.1408 67.0731 56.8411C67.8582 56.5413 68.6862 56.2273 69.5426 55.9275C70.3991 55.6277 71.227 55.3708 72.0121 55.1567C72.7972 54.9425 73.3968 54.8426 73.825 54.8426C74.0962 54.8426 74.2818 54.9425 74.396 55.1281C74.5102 55.2423 74.4959 55.3993 74.3389 55.5849C74.1819 55.7705 73.982 55.9703 73.7393 56.1559C73.4967 56.3415 73.2255 56.5128 72.9685 56.6698C72.6973 56.8268 72.526 56.9124 72.4546 56.9553C71.798 57.3407 70.9844 57.7689 69.9851 58.2542C68.9859 58.7253 68.1294 59.1964 67.4014 59.6531C67.3301 59.7245 67.1873 59.8102 66.9732 59.8815C66.7591 59.9529 66.6021 60.0386 66.4879 60.1099C66.9447 61.1377 67.273 62.037 67.4585 62.7793C67.6441 63.5215 67.7155 64.2353 67.6584 64.9347C67.6013 65.6199 67.4585 66.3194 67.2302 67.0331C67.0018 67.7468 66.6877 68.5605 66.3166 69.474C65.7741 70.359 65.2317 71.2012 64.675 72.0006C64.1183 72.8 63.5045 73.528 62.805 74.1846C62.1199 74.8413 61.3633 75.3551 60.5639 75.7263C59.7646 76.1117 58.8796 76.2973 57.9232 76.2973C57.3807 76.2973 56.8668 76.2259 56.3672 76.0974C55.8676 75.9689 55.4537 75.6834 55.1111 75.2695C54.2261 74.3131 53.7407 73.2711 53.6265 72.1434C53.5123 71.0157 53.6122 69.9023 53.912 68.7888C54.1404 68.1037 54.4259 67.4756 54.7685 66.8903C55.6107 65.4343 56.5385 64.2067 57.552 63.1932C58.5798 62.194 59.6361 61.2233 60.7495 60.3098ZM62.7051 62.8935C62.2769 63.3217 61.7059 63.9212 60.9779 64.7063C60.2499 65.4914 59.579 66.3479 58.9366 67.2615C58.3086 68.175 57.7947 69.0886 57.395 69.9879C56.9953 70.8872 56.8954 71.658 57.081 72.3147C57.8518 71.9721 58.6369 71.4011 59.4363 70.616C60.2356 69.8309 60.9494 68.9744 61.5632 68.0323C62.177 67.0902 62.6052 66.1623 62.8479 65.2488C63.0905 64.3209 63.0477 63.5358 62.7051 62.8935Z" fill="#292F36" stroke="white" stroke-miterlimit="10"/>
<path d="M51.4426 83.5488C33.5852 83.5488 19.0537 69.0174 19.0537 51.1599C19.0537 33.3025 33.5852 18.771 51.4426 18.771C69.3001 18.771 83.8316 33.3025 83.8316 51.1599C83.8316 69.0174 69.3001 83.5488 51.4426 83.5488ZM51.4426 20.1984C34.3703 20.1984 20.4812 34.0876 20.4812 51.1599C20.4812 68.2323 34.3703 82.1214 51.4426 82.1214C68.515 82.1214 82.4041 68.2323 82.4041 51.1599C82.4041 34.0876 68.515 20.1984 51.4426 20.1984Z" fill="#292F36"/>
</svg>
