<svg width="164" height="44" viewBox="0 0 164 44" fill="none" xmlns="http://www.w3.org/2000/svg">
<path d="M35.3997 43.548H8.58142C4.17427 43.548 0.602539 39.9763 0.602539 35.5691V8.75086C0.602539 4.34371 4.17427 0.771973 8.58142 0.771973H35.3997C39.8068 0.771973 43.3786 4.34371 43.3786 8.75086V35.5691C43.3786 39.9763 39.8068 43.548 35.3997 43.548Z" fill="#292F36"/>
<path d="M29.6972 22.5535C30.46 23.51 30.8474 24.6239 30.8474 25.8831C30.8474 27.7356 30.2299 29.1885 28.995 30.2176C27.76 31.2467 25.9923 31.7795 23.6918 31.7795H13.6426V10.1675H23.4497C25.6533 10.1675 27.3483 10.6518 28.547 11.6083C29.7456 12.5648 30.351 13.9329 30.351 15.7006C30.351 17.0083 29.9999 18.0858 29.3098 18.9576C28.6196 19.8293 27.7116 20.3863 26.5856 20.6526C27.9053 20.9674 28.9344 21.597 29.6972 22.5535ZM18.8609 19.006H22.2874C24.1035 19.006 25.0116 18.2311 25.0116 16.6814C25.0116 15.1316 24.0793 14.3567 22.2268 14.3567H18.8609V19.006V19.006ZM25.4959 25.1567C25.4959 24.3818 25.2416 23.7764 24.7331 23.3405C24.2246 22.9046 23.4981 22.6867 22.5658 22.6867H18.873V27.5418H22.6022C24.5273 27.5297 25.4959 26.7427 25.4959 25.1567Z" fill="white"/>
<path d="M68.1628 31.7795L63.4893 23.619H62.3027V31.7795H57.0723V10.1675H65.9955C67.7027 10.1675 69.1556 10.4581 70.3301 11.0513C71.5166 11.6446 72.4004 12.4558 72.9937 13.485C73.587 14.5141 73.8776 15.6885 73.8776 17.0204C73.8776 18.5943 73.4417 19.9262 72.5821 21.028C71.7103 22.1298 70.4632 22.8804 68.8045 23.2921L73.9381 31.7916H68.1628V31.7795ZM62.3027 20.0473H65.5354C66.5767 20.0473 67.3395 19.8172 67.8238 19.3571C68.3081 18.897 68.5623 18.219 68.5623 17.3231C68.5623 16.4634 68.3081 15.7975 67.8117 15.3011C67.3153 14.8168 66.5525 14.5625 65.5354 14.5625H62.3027V20.0473Z" fill="#292F36"/>
<path d="M97.5359 27.8445H89.436L88.0921 31.7915H82.5952L90.5136 10.3369H96.531L104.449 31.7915H98.892L97.5359 27.8445ZM96.192 23.8611L93.5041 15.9185L90.7799 23.8611H96.192Z" fill="#292F36"/>
<path d="M133.302 31.7795H128.071L119.33 18.5096V31.7795H114.099V10.1675H119.33L128.071 23.5584V10.1675H133.302V31.7795Z" fill="#292F36"/>
<path d="M162.626 26.5733C161.718 28.2078 160.41 29.4912 158.715 30.4114C157.008 31.3316 155.01 31.7917 152.71 31.7917H144.549V10.1797H152.71C155.034 10.1797 157.044 10.6277 158.727 11.5236C160.422 12.4196 161.718 13.6788 162.626 15.3133C163.534 16.9478 163.982 18.8124 163.982 20.9433C163.982 23.05 163.522 24.9267 162.626 26.5733ZM156.996 25.4836C158.122 24.4061 158.691 22.8805 158.691 20.9312C158.691 18.9698 158.122 17.4563 156.996 16.3788C155.87 15.3012 154.284 14.7563 152.238 14.7563H149.768V27.1061H152.238C154.284 27.1061 155.87 26.5733 156.996 25.4836Z" fill="#292F36"/>
</svg>
