<svg width="146" height="45" viewBox="0 0 146 45" fill="none" xmlns="http://www.w3.org/2000/svg">
<path d="M21.2239 8.95729L22.2945 8.7289C22.5657 8.7289 22.7941 8.786 22.9512 8.9002C23.1082 9.01439 23.1938 9.12859 23.1938 9.22851C23.1938 9.32843 23.1653 9.48545 23.1224 9.67102C23.0796 9.85659 22.6799 11.7694 21.9377 15.3808C21.1954 18.9923 20.6529 21.6902 20.3104 23.4602C21.9662 21.2048 23.9075 18.4356 26.1201 15.1382C28.3327 11.8407 29.6316 9.65674 30.0028 8.57188C30.117 8.22929 30.274 7.97235 30.4596 7.78678C30.6451 7.60121 30.8164 7.48702 30.9592 7.45847C31.1019 7.42992 31.3303 7.40137 31.6301 7.40137C31.9298 7.40137 32.2867 7.47274 32.7007 7.60121C33.1146 7.72968 33.3287 7.9438 33.3287 8.25784C33.3287 8.82882 32.4723 10.4989 30.7736 13.2397C29.0749 15.9804 27.1193 18.8924 24.921 21.9757C22.7228 25.059 20.8956 27.4999 19.4253 29.2985C19.1684 29.6125 18.8401 29.7838 18.469 29.7838C18.0978 29.7838 17.6981 29.7125 17.2842 29.584C16.8702 29.4555 16.6561 29.2271 16.6561 28.8845C16.6561 27.814 17.5982 22.6466 19.4824 13.4109C17.8694 15.495 15.9138 18.407 13.6156 22.1327C11.2175 25.9868 9.86141 28.3849 9.54737 29.2985C9.37607 29.8552 9.17623 30.1835 8.94784 30.2692C8.79082 30.3405 8.61952 30.3691 8.44822 30.3691L7.29199 30.4976C7.06359 30.4976 6.86375 30.4405 6.6639 30.312C6.47834 30.1835 6.37842 30.0551 6.37842 29.9123C6.37842 29.5269 6.92086 28.3564 7.99145 26.415C9.06204 24.4737 10.3325 22.3611 11.7742 20.0772C13.2159 17.7932 14.7147 15.5807 16.2849 13.4252C17.8551 11.2698 19.0685 9.81376 19.925 9.08576C20.0963 8.92874 20.2961 8.85737 20.5245 8.85737L21.2239 8.95729Z" fill="#292F36"/>
<path d="M38.382 18.6354C39.1243 18.6354 39.4954 18.8924 39.4954 19.392C39.4954 19.6632 39.4383 19.8631 39.3098 19.9915C39.1814 20.12 38.9101 20.534 38.4962 21.262C38.0822 21.9757 37.6254 22.8893 37.1258 24.0169C36.6262 25.1304 36.2979 26.0868 36.1552 26.8719C36.1266 26.9718 36.1123 27.1002 36.1123 27.2858C36.1123 27.8283 36.2551 28.0852 36.5549 28.0852C36.8546 28.0852 37.1972 27.9424 37.5969 27.6712C37.9966 27.3857 38.3534 27.1002 38.6675 26.7719C38.9815 26.4579 39.2813 26.1296 39.581 25.8013C39.8808 25.473 40.0521 25.2731 40.1092 25.2303C40.1663 25.1875 40.252 25.1589 40.3661 25.1589C40.5517 25.1589 40.6659 25.3017 40.7087 25.5872C40.7516 25.8726 40.7658 26.1581 40.7658 26.4722C40.7658 26.7862 40.7373 26.9861 40.6802 27.1002C40.3947 27.657 39.7809 28.3279 38.8102 29.113C37.8538 29.8981 36.9688 30.2835 36.1837 30.2835C35.3986 30.2835 34.8134 30.0408 34.4565 29.5697C34.0996 29.0987 33.8998 28.5563 33.8998 27.9853C33.8998 27.4 33.9997 26.9004 34.1996 26.4579C33.3859 27.5142 32.4581 28.3992 31.416 29.1415C30.3597 29.8695 29.5175 30.2406 28.8466 30.2406C28.1757 30.2406 27.6476 30.0408 27.2193 29.6411C26.6769 29.1415 26.4199 28.4563 26.4199 27.5713C26.4199 26.6863 26.6198 25.8013 27.0194 24.902C27.4191 24.017 27.933 23.189 28.5754 22.461C29.2177 21.7187 29.9315 21.0478 30.7023 20.4483C32.3153 19.1779 33.8141 18.5498 35.1845 18.5498C35.7126 18.5498 36.1409 18.6355 36.4692 18.8067C36.7975 18.978 37.0116 19.2064 37.0973 19.4634C37.3257 19.1065 37.5255 18.8924 37.6968 18.7925C37.8253 18.6783 38.0679 18.6354 38.382 18.6354ZM36.4407 20.2627C34.7705 20.2627 33.0433 21.1906 31.259 23.0463C30.6309 23.7172 30.0457 24.5023 29.5032 25.4301C28.9608 26.358 28.7039 26.9861 28.7039 27.3286C28.7039 27.6712 28.8038 27.8425 29.0036 27.8425C29.2748 27.8425 30.0314 27.3001 31.2875 26.2295C32.5437 25.1589 33.3716 24.3595 33.7713 23.8457C34.2281 23.2747 35.1131 22.0756 36.4407 20.2627Z" fill="#292F36"/>
<path d="M49.4874 10.8987L50.0869 11.0414C50.1726 11.0414 50.2582 11.0843 50.3153 11.1699C50.3867 11.2555 50.4152 11.3412 50.4152 11.4126C50.4152 11.4839 50.3153 11.6981 50.1012 12.0406C49.8871 12.3832 49.6587 12.7686 49.3732 13.1969C49.0877 13.6251 48.945 13.8678 48.9307 13.9106C49.6872 13.8535 50.2297 13.825 50.5437 13.825C50.8578 13.825 51.0719 13.8535 51.2003 13.8963C51.3145 13.9392 51.4573 14.0676 51.6 14.2675C51.757 14.4673 51.8855 14.6243 52.014 14.7243C52.1425 14.8242 52.1996 14.9812 52.1996 15.181C52.1996 15.3809 52.0711 15.5665 51.8284 15.6949C51.5857 15.8377 51.3145 15.9233 51.029 15.9519C48.7594 16.1803 47.5175 16.2945 47.2891 16.3087C46.504 17.5221 45.3906 19.4063 43.9774 21.9614C42.5642 24.5166 41.8077 26.1296 41.722 26.772C41.6792 27.0717 41.6649 27.3001 41.6649 27.4857C41.6649 27.8711 41.8648 28.0567 42.2645 28.0567C42.6642 28.0567 43.1067 27.8997 43.592 27.5999C44.0773 27.2859 44.5341 26.9575 44.9338 26.6007C46.0329 25.63 46.6182 25.1304 46.6896 25.1304C46.9465 25.1304 47.075 25.5729 47.075 26.4437C47.075 26.9147 46.8609 27.3429 46.4184 27.7284C45.4334 28.5706 44.6055 29.2129 43.9346 29.6411C43.2637 30.0694 42.5928 30.2835 41.9076 30.2835C41.7649 30.2835 41.6221 30.2692 41.4937 30.2407C40.7086 30.0979 40.1376 29.8124 39.7807 29.3842C39.4096 28.956 39.2383 28.385 39.2383 27.6713C39.2383 26.9575 39.4524 26.0725 39.8806 25.0447C40.3089 24.017 40.837 22.9178 41.4794 21.7616C42.5357 19.8631 43.592 18.093 44.6341 16.4372L44.0773 16.5086C42.9497 16.637 42.293 16.6941 42.1075 16.6941H41.979C41.6935 16.6941 41.4223 16.637 41.1653 16.5228C40.9084 16.4087 40.7656 16.2659 40.7656 16.1089C40.7656 15.9376 40.837 15.7806 40.9798 15.6236C41.1225 15.4665 41.2082 15.3381 41.2367 15.2524C41.3081 15.0383 41.565 14.7956 42.0075 14.5387C42.45 14.2817 42.7784 14.139 43.0068 14.1247C43.2352 14.1105 43.4493 14.0962 43.6634 14.0819C43.8775 14.0676 44.1059 14.0676 44.3628 14.0534C44.6198 14.0391 44.8196 14.0391 44.9624 14.0248L46.2756 13.9677C47.0893 12.7401 47.6603 11.9407 47.96 11.5981C48.2741 11.2413 48.4454 11.0557 48.4882 11.0272C48.531 10.9986 48.6309 10.9701 48.7879 10.9701L49.4874 10.8987Z" fill="#292F36"/>
<path d="M58.2663 25.1591C58.4518 25.1591 58.566 25.3019 58.6089 25.5873C58.6517 25.8728 58.666 26.1583 58.666 26.4724C58.666 26.7864 58.6374 26.9862 58.5803 27.1004C58.2948 27.6429 57.681 28.3138 56.7246 29.0989C55.7682 29.884 54.8547 30.2837 53.9982 30.2837C53.47 30.2837 52.9847 30.1266 52.5279 29.8126C52.0854 29.4986 51.857 28.9419 51.857 28.1568C51.857 27.3717 52.0711 26.5866 52.4851 25.83C50.0584 28.8705 48.1742 30.3836 46.7895 30.3836C46.2471 30.3836 45.8046 30.1837 45.462 29.7983C45.1194 29.4129 44.9624 29.0132 44.9624 28.585C44.9624 28.171 45.0195 27.7428 45.1337 27.3003C45.2479 26.8578 45.3764 26.4581 45.5048 26.1012C45.6333 25.7444 45.8331 25.3161 46.0901 24.8023C46.347 24.2884 46.5469 23.9172 46.6611 23.6746C46.7753 23.4319 46.9894 23.0893 47.2749 22.6182C47.5604 22.1472 47.9172 21.5048 48.374 20.7055C48.8308 19.9061 49.2019 19.3066 49.5017 18.9211C49.8015 18.5357 50.087 18.3359 50.3724 18.3359C50.6579 18.3359 50.9006 18.4501 51.1147 18.6785C51.3288 18.9069 51.443 19.1067 51.443 19.2495C51.443 19.3922 51.1147 20.0488 50.4581 21.2193C48.531 24.7166 47.5604 26.7436 47.5604 27.3288C47.5604 27.4716 47.6175 27.543 47.7174 27.543C48.1884 27.543 49.359 26.5295 51.2147 24.5025C53.0703 22.4755 54.1552 21.1765 54.455 20.6055C54.7547 20.0346 55.0259 19.5492 55.3114 19.1638C55.5827 18.7784 55.7968 18.5357 55.9395 18.4501C56.3535 18.1789 56.8959 18.0361 57.5668 18.0076C57.681 18.0076 57.7524 18.0076 57.8095 18.0218C57.8666 18.0361 57.938 18.1218 58.0093 18.2645C58.0807 18.4073 58.1235 18.5357 58.1235 18.6356C58.0379 18.9069 57.6525 19.6349 56.953 20.8197C56.2678 22.0044 55.8824 22.6753 55.8111 22.8181C54.6548 25.2019 54.0838 26.7579 54.0838 27.4716C54.0838 27.8855 54.2409 28.0854 54.5549 28.0854C55.1259 28.014 55.8111 27.5572 56.6104 26.7293C56.9102 26.4295 57.1957 26.1155 57.4812 25.8015C57.7667 25.4874 57.9522 25.3019 58.0093 25.259C58.0807 25.1877 58.1664 25.1591 58.2663 25.1591Z" fill="#292F36"/>
<path d="M62.5059 21.7759C64.8041 19.1637 66.774 17.8504 68.387 17.8504C68.7867 17.8504 69.115 17.9646 69.372 18.2073C69.6289 18.45 69.7574 18.7497 69.7574 19.1351C69.7574 19.5206 69.4862 20.1486 68.9437 21.0479C68.4013 21.933 67.9017 22.6895 67.4449 23.3033C67.2022 23.6174 66.931 23.7744 66.617 23.7744C66.3172 23.7744 66.0745 23.6602 65.9032 23.4318C65.732 23.2034 65.6463 22.9464 65.6463 22.6467C65.6463 21.9758 66.0032 21.205 66.7312 20.3628L66.7026 20.3342C66.3743 20.3628 65.5892 21.0051 64.3045 22.2327C63.0341 23.4746 61.9492 24.588 61.0499 25.5587C60.1649 26.5436 59.1942 27.7284 58.1379 29.1416C57.8381 29.5556 57.5812 29.7697 57.3671 29.7697C57.153 29.7697 56.8817 29.6983 56.5392 29.5698C56.1966 29.4414 55.9824 29.3414 55.9111 29.2843C55.8397 29.2272 55.7969 29.1273 55.7969 28.9846C55.7969 28.8561 55.8397 28.6848 55.9111 28.5135C55.9824 28.3279 56.1395 28.071 56.3393 27.7427C56.5392 27.4144 56.8675 26.8719 57.2957 26.1297C57.7239 25.3874 58.3806 24.2597 59.2799 22.7609C60.1792 21.2621 60.7073 20.3485 60.8929 20.0344C61.264 19.3921 61.5638 18.921 61.8065 18.6355C62.249 18.0788 62.9912 17.8076 64.0333 17.8076C64.2617 17.8076 64.3902 17.9504 64.3902 18.2501C64.3902 18.7069 63.9619 19.5777 63.1197 20.8338L62.5059 21.7759Z" fill="#292F36"/>
<path d="M78.2508 18.8067C78.2508 19.449 77.9939 20.02 77.4657 20.5053C76.9375 20.9907 76.3523 21.2333 75.6814 21.2333C75.4673 21.2333 75.3245 21.1762 75.2531 21.0763C75.1818 20.9764 75.1532 20.8336 75.1532 20.6766C75.1532 20.5196 75.1675 20.3483 75.2103 20.1913C74.8535 20.3055 74.468 20.491 74.0398 20.7337C73.6116 20.9764 73.0834 21.3332 72.4553 21.8186C71.8272 22.3039 71.5132 22.6465 71.5132 22.8892C71.5132 22.9605 71.6274 23.0034 71.8558 23.0034C72.0842 23.0034 72.4411 22.9177 72.9121 22.7607C73.3832 22.6037 73.7258 22.518 73.9113 22.518C74.0969 22.518 74.2254 22.5323 74.2825 22.5466C74.4109 22.618 74.5394 22.7607 74.6964 22.9891C74.8392 23.2175 74.9105 23.4031 74.9105 23.5315C74.9105 23.66 74.7821 23.8313 74.5252 24.0454C74.2682 24.2595 73.9827 24.4165 73.6687 24.5307C73.3404 24.6449 73.1262 24.7306 73.0263 24.7877C70.9708 25.9439 69.943 26.729 69.943 27.1573C69.943 27.9138 70.5854 28.2992 71.8844 28.2992C72.7123 28.2992 73.5545 28.0423 74.3824 27.5141C75.0961 27.0716 75.7385 26.6148 76.3095 26.1438C76.8804 25.687 77.2373 25.4015 77.3943 25.2873C77.5513 25.1731 77.6655 25.1303 77.7369 25.1303C77.9939 25.1303 78.1223 25.4158 78.1223 25.9867C78.1223 26.5577 78.0938 26.9289 78.0224 27.1002C77.951 27.2857 77.7655 27.4998 77.4371 27.7711C75.3531 29.4697 73.3689 30.3262 71.5132 30.3262C70.514 30.3262 69.7289 30.1835 69.1294 29.9122C68.0302 29.4126 67.4878 28.6561 67.4878 27.6283C67.4878 26.2865 68.4156 25.2587 70.2856 24.5736C69.9145 24.4023 69.6718 24.2024 69.5719 23.9312C69.4577 23.6743 69.4149 23.2603 69.4149 22.6893C69.4149 22.1183 69.6861 21.5188 70.2142 20.8765C70.7424 20.2341 71.399 19.7059 72.1698 19.3063C73.8828 18.3784 75.4244 17.9216 76.7662 17.9216C77.0946 17.9216 77.4086 17.993 77.7512 18.15C78.0938 18.307 78.2508 18.5212 78.2508 18.8067Z" fill="#292F36"/>
<path d="M111.567 8.87167H111.753C111.81 8.87167 111.853 8.87167 111.867 8.88595C111.881 8.90022 111.896 8.90022 111.924 8.9145C111.953 8.9145 111.967 8.92877 111.996 8.95732C112.038 9.00014 112.11 9.04296 112.195 9.08579C112.31 9.17144 112.367 9.27136 112.367 9.38556C112.367 9.49975 112.252 9.74242 112.024 10.1136C111.796 10.4847 111.21 11.384 110.254 12.84C108.07 16.1802 106.114 19.2921 104.387 22.147C101.404 27.1145 99.8907 29.6126 99.8622 29.6411C99.8336 29.6697 99.8193 29.6982 99.8051 29.7268C99.7908 29.7839 99.7622 29.8124 99.6909 29.8124L99.491 29.7696L99.0913 29.8695L98.8629 29.8267L98.6203 29.8695H98.5346L97.721 29.9837C97.2357 29.9837 96.993 29.8124 96.993 29.4841C96.993 29.3414 97.0358 29.1701 97.1214 28.9702C97.4212 28.2565 98.9486 25.6728 101.689 21.1906C99.8907 21.2334 98.1064 21.262 96.3506 21.262L93.2102 21.2477C92.6964 22.0756 91.9826 23.2461 91.0833 24.7735C89.142 28.0995 88.1142 29.7696 87.9857 29.7981C87.8573 29.8267 87.7574 29.8552 87.6717 29.8552C87.5861 29.8552 87.5147 29.8124 87.4576 29.7125C87.3862 29.6268 87.3434 29.5697 87.3148 29.5697C87.2863 29.5697 87.2435 29.584 87.1578 29.6268C87.0865 29.6697 86.9723 29.6839 86.8152 29.6839L86.4727 29.6697L86.3442 29.584C86.3299 29.584 86.3156 29.5983 86.3014 29.6268C86.2871 29.6554 86.2443 29.6697 86.1872 29.6697C85.7732 29.6697 85.5591 29.4984 85.5591 29.1415C85.5591 28.9131 85.6447 28.5991 85.8017 28.2137C85.973 27.8283 86.1872 27.4143 86.4584 26.9718C86.7296 26.5293 87.4148 25.4587 88.5425 23.7886C89.6559 22.1184 90.2126 21.2762 90.2126 21.262C90.027 21.2477 89.8129 21.2477 89.5702 21.2334C89.0706 21.2334 88.728 21.2191 88.5139 21.1763C87.9572 21.0764 87.5718 20.6196 87.372 19.806C87.2578 19.4063 87.2149 19.1493 87.2292 19.0209C87.2292 18.7639 87.3434 18.6212 87.5718 18.6212L87.9572 18.7211C88.157 18.7354 88.6138 18.7496 89.3561 18.7925C90.0984 18.8353 90.6265 18.8496 90.9549 18.8496L91.7828 18.821C93.0532 16.8369 94.5663 14.5815 96.3364 12.0692C95.0517 13.1255 93.6242 13.6536 92.054 13.6536C91.3117 13.6536 90.6694 13.4823 90.1412 13.1255C89.5988 12.7686 89.3418 12.3118 89.3418 11.7694C89.3418 11.227 89.5417 10.7987 89.9556 10.4704C90.3696 10.1564 90.755 9.99936 91.1261 9.99936C91.4973 9.99936 91.6828 10.0565 91.6828 10.1707C91.6828 10.2135 91.6257 10.2563 91.5258 10.2991C91.4259 10.3562 91.3688 10.399 91.3688 10.4419C91.3688 10.5989 91.5401 10.7416 91.8827 10.8558C92.2253 10.97 92.6107 11.0414 93.0389 11.0414C93.4672 11.0414 93.9811 10.9129 94.6091 10.6703C95.2372 10.4276 95.8796 10.0993 96.5505 9.71387C97.4926 9.17144 98.2349 8.71465 98.7773 8.35779C99.0913 8.20077 99.3768 8.12939 99.6623 8.12939C99.9478 8.12939 100.133 8.15794 100.262 8.22932C100.39 8.28641 100.476 8.35779 100.533 8.41489C100.59 8.47198 100.662 8.55763 100.719 8.65755C100.79 8.75748 100.847 8.84312 100.918 8.88595C100.976 8.94304 101.018 9.00014 101.018 9.07151C101.018 9.14289 100.976 9.24281 100.904 9.39983C100.833 9.54258 100.462 10.1421 99.7908 11.1841C99.1199 12.2262 98.2491 13.5537 97.1928 15.1667C96.1365 16.7798 95.3657 17.9646 94.8804 18.7354C97.4926 18.7354 100.305 18.6926 103.331 18.5926C107.014 12.7829 108.955 9.74242 109.155 9.45693C109.355 9.17144 109.54 8.98587 109.712 8.90022C109.883 8.81457 110.083 8.77175 110.325 8.77175L111.567 8.87167Z" fill="#292F36"/>
<path d="M116.335 18.6068C116.635 18.6068 116.935 18.7353 117.234 19.0065C117.548 19.2777 117.691 19.6774 117.691 20.2198C117.691 20.7623 117.506 21.4617 117.12 22.3325C116.735 23.1889 116.221 24.074 115.55 24.9733C114.893 25.8583 114.151 26.7005 113.366 27.4856C112.567 28.2707 111.71 28.913 110.796 29.4127C109.869 29.9123 109.041 30.1692 108.284 30.1692C107.528 30.1692 106.928 29.9265 106.471 29.4555C106.015 28.9844 105.786 28.3278 105.786 27.4856C105.786 26.6434 106 25.7013 106.414 24.6878C106.828 23.66 107.356 22.7607 108.013 21.9756C108.67 21.1905 109.369 20.4911 110.14 19.863C111.724 18.5783 113.123 17.9502 114.322 17.9502C114.865 17.9502 115.264 18.0787 115.536 18.3499C115.636 18.4355 115.678 18.5212 115.678 18.5783V18.6639C115.835 18.6068 116.05 18.6068 116.335 18.6068ZM114.865 20.5482H114.765C114.422 20.5482 114.251 20.3055 114.251 19.8059C113.537 20.0343 112.795 20.4482 112.01 21.0335C111.225 21.6188 110.525 22.3182 109.911 23.1176C108.655 24.7163 108.027 26.0724 108.013 27.1715C108.013 27.714 108.213 27.9852 108.612 27.9852C109.012 27.9852 109.612 27.714 110.397 27.2001C111.182 26.6862 111.967 25.9297 112.752 24.9447C113.523 23.9741 114.108 23.1176 114.494 22.4039C114.879 21.6901 115.079 21.2048 115.079 20.9336C115.065 20.6766 114.993 20.5482 114.865 20.5482Z" fill="#292F36"/>
<path d="M117.377 29.8409L116.664 29.8124H116.407C116.307 29.7838 116.207 29.7267 116.093 29.6411C115.978 29.5554 115.893 29.484 115.836 29.4555C115.779 29.427 115.75 29.3413 115.75 29.2414C115.75 29.1415 115.793 28.9559 115.864 28.7132C117.763 24.5308 119.604 21.1763 121.388 18.6782C121.588 18.407 121.902 18.1929 122.331 18.0501C122.759 17.9074 123.187 17.836 123.601 17.836C123.844 17.836 123.972 18.0216 123.972 18.407C123.972 18.5212 123.929 18.664 123.858 18.8352C123.787 19.0208 123.587 19.3063 123.273 19.7203C122.959 20.1342 122.588 20.6053 122.159 21.1192C121.731 21.6331 121.488 21.9471 121.431 22.0327C122.773 20.6481 123.972 19.6203 125.057 18.9352C126.142 18.2643 126.913 17.9217 127.398 17.9217C127.883 17.9217 128.254 18.0644 128.511 18.3356C128.768 18.6069 128.897 18.9066 128.897 19.2207C128.897 19.5347 128.868 19.8059 128.825 20.0058C128.783 20.2199 128.697 20.434 128.583 20.6624C128.469 20.8908 128.369 21.0906 128.283 21.2476C128.197 21.4047 128.055 21.6188 127.869 21.8757C127.669 22.1327 127.541 22.3182 127.469 22.4182C127.398 22.5181 127.241 22.7036 127.013 22.9749C126.784 23.2461 126.656 23.4031 126.641 23.4316C126.913 23.1604 127.298 22.7607 127.783 22.2183C128.269 21.6759 128.683 21.2334 129.025 20.8765C129.368 20.5196 129.782 20.1057 130.296 19.6489C130.81 19.1921 131.281 18.821 131.709 18.5498C132.765 17.8931 133.836 17.5505 134.921 17.5505C135.292 17.5505 135.606 17.6647 135.863 17.9074C136.12 18.1501 136.248 18.4213 136.248 18.7496C136.248 19.0779 135.849 19.863 135.063 21.0906C134.278 22.3182 133.479 23.5601 132.694 24.802C131.909 26.0439 131.509 26.829 131.509 27.1573C131.509 27.5998 131.595 27.871 131.752 27.9567C131.923 28.0423 132.123 28.0709 132.351 28.0566C132.58 28.0423 132.922 27.8853 133.336 27.5998C133.764 27.3143 134.136 27.0288 134.464 26.7148C135.006 26.2295 135.492 25.7584 135.963 25.3016C136.063 25.216 136.163 25.1731 136.291 25.1731C136.477 25.1731 136.591 25.3159 136.634 25.6014C136.676 25.8869 136.691 26.1724 136.691 26.4864C136.691 26.8004 136.662 27.0003 136.605 27.1145C136.32 27.6569 135.692 28.3278 134.735 29.1272C133.764 29.9123 132.837 30.312 131.952 30.312C131.837 30.312 131.766 30.312 131.723 30.2977C130.724 30.1978 130.025 29.9266 129.639 29.4698C129.254 29.013 129.068 28.4706 129.068 27.8568C129.068 27.2429 129.282 26.4721 129.71 25.5871C130.139 24.7021 130.596 23.8884 131.109 23.1747C131.623 22.461 132.08 21.8043 132.508 21.2191C132.937 20.6338 133.151 20.3198 133.151 20.277C133.151 20.2341 133.108 20.2056 133.036 20.2056C132.737 20.2056 132.066 20.6909 131.009 21.6759C129.225 23.346 127.684 24.959 126.385 26.5007C126.042 26.9146 125.228 27.9424 123.958 29.6125C123.815 29.8124 123.572 29.9123 123.258 29.9123C122.944 29.9123 122.616 29.8552 122.273 29.7267C121.931 29.5982 121.76 29.4412 121.76 29.2557C121.76 29.1557 122.53 27.7854 124.086 25.1446C125.642 22.5038 126.413 21.0621 126.413 20.8337C126.413 20.591 126.27 20.4768 125.985 20.4768C125.699 20.4768 125.1 20.9051 124.201 21.7615C121.731 24.1168 119.818 26.4721 118.462 28.7989C118.377 28.9416 118.205 29.1557 117.948 29.4412C117.691 29.7267 117.463 29.8409 117.377 29.8409Z" fill="#292F36"/>
<path d="M145.683 18.8067C145.683 19.449 145.426 20.02 144.898 20.5053C144.37 20.9907 143.785 21.2333 143.114 21.2333C142.9 21.2333 142.757 21.1762 142.686 21.0763C142.614 20.9764 142.586 20.8336 142.586 20.6766C142.586 20.5196 142.6 20.3483 142.643 20.1913C142.286 20.3055 141.901 20.491 141.472 20.7337C141.044 20.9764 140.516 21.3332 139.888 21.8186C139.26 22.3039 138.946 22.6465 138.946 22.8892C138.946 22.9605 139.06 23.0034 139.288 23.0034C139.517 23.0034 139.874 22.9177 140.345 22.7607C140.816 22.6037 141.158 22.518 141.344 22.518C141.53 22.518 141.658 22.5323 141.715 22.5466C141.844 22.618 141.972 22.7607 142.129 22.9891C142.272 23.2175 142.343 23.4031 142.343 23.5315C142.343 23.66 142.215 23.8313 141.958 24.0454C141.701 24.2595 141.415 24.4165 141.101 24.5307C140.773 24.6449 140.559 24.7306 140.459 24.7877C138.403 25.9439 137.376 26.729 137.376 27.1573C137.376 27.9138 138.018 28.2992 139.317 28.2992C140.145 28.2992 140.987 28.0423 141.815 27.5141C142.529 27.0716 143.171 26.6148 143.742 26.1438C144.313 25.687 144.67 25.4015 144.827 25.2873C144.984 25.1731 145.098 25.1303 145.17 25.1303C145.426 25.1303 145.555 25.4158 145.555 25.9867C145.555 26.5577 145.526 26.9289 145.455 27.1002C145.384 27.2857 145.198 27.4998 144.87 27.7711C142.786 29.4697 140.802 30.3262 138.946 30.3262C137.947 30.3262 137.162 30.1835 136.562 29.9122C135.463 29.4126 134.92 28.6561 134.92 27.6283C134.92 26.2865 135.848 25.2587 137.718 24.5736C137.347 24.4023 137.104 24.2024 137.004 23.9312C136.89 23.6743 136.847 23.2603 136.847 22.6893C136.847 22.1183 137.119 21.5188 137.647 20.8765C138.175 20.2341 138.832 19.7059 139.602 19.3063C141.315 18.3784 142.857 17.9216 144.199 17.9216C144.527 17.9216 144.841 17.993 145.184 18.15C145.526 18.307 145.683 18.5212 145.683 18.8067Z" fill="#292F36"/>
<path d="M0.982422 33.795C4.73662 35.3652 8.56219 36.5785 12.4591 37.5064C16.3275 38.477 20.2673 39.1622 24.2071 39.5904C26.177 39.8617 28.1611 39.8902 30.1168 40.0758C32.1009 40.0901 34.0708 40.2471 36.0407 40.1329L38.9955 40.0615C39.9805 40.0472 40.9654 39.9188 41.9503 39.8617C42.9353 39.776 43.9202 39.7332 44.8909 39.6047L47.8172 39.1908C51.7427 38.7625 55.554 37.849 59.351 36.7498C63.1908 35.6935 66.8166 34.2946 70.6564 32.8386C74.5819 31.3969 78.8357 30.4547 83.1466 30.9115C85.2735 31.1828 87.4147 31.8679 89.1562 33.1241C90.912 34.366 92.1682 36.136 92.9675 37.9917C91.7685 36.3359 90.2696 34.9798 88.5424 34.1376C86.8152 33.2954 84.9167 32.9528 83.0324 33.0099C79.2211 33.067 75.4669 34.3374 71.9411 35.9362C68.3582 37.7062 64.4755 39.305 60.5643 40.6325C56.6245 41.9029 52.5563 42.9164 48.431 43.4303C40.2231 44.5152 31.8154 44.5294 23.7075 42.8879C19.6392 42.1456 15.6709 40.9894 11.8311 39.5191C8.01975 37.9917 4.29411 36.2074 0.982422 33.795Z" fill="#292F36"/>
<path d="M137.49 10.028C134.306 8.67192 131.066 7.6156 127.783 6.78768C124.514 5.91693 121.202 5.30313 117.876 4.87489C116.221 4.61795 114.536 4.56085 112.88 4.36101C111.21 4.31819 109.554 4.14689 107.884 4.21826C107.056 4.23254 106.214 4.23254 105.386 4.21826C104.558 4.21826 103.716 4.30391 102.888 4.33246C102.06 4.38956 101.218 4.40383 100.39 4.48948L97.9063 4.78924C94.5804 5.06046 91.3543 5.74564 88.1283 6.58784C84.8594 7.37294 81.7619 8.48635 78.4644 9.59976C75.0814 10.7275 71.4128 11.4126 67.73 10.8987C65.9171 10.599 64.09 9.95663 62.6482 8.81466C61.178 7.68697 60.1787 6.14532 59.5649 4.5323C60.5784 5.94548 61.8346 7.10172 63.2763 7.81545C64.7181 8.52917 66.3025 8.82894 67.887 8.81466C71.0845 8.81466 74.2534 7.7869 77.2511 6.50219C80.3058 5.04619 83.6604 3.76148 87.0006 2.70516C90.3694 1.69167 93.8809 0.920846 97.3925 0.549708C104.401 -0.192567 111.567 -0.0212732 118.433 1.60602C121.873 2.33403 125.228 3.44744 128.44 4.81779C131.666 6.2167 134.777 7.84399 137.49 10.028Z" fill="#292F36"/>
</svg>
