<svg width="118" height="48" viewBox="0 0 118 48" fill="none" xmlns="http://www.w3.org/2000/svg">
<path d="M0.683105 29.7841V0.578369H17.8839V29.7698H0.683105V29.7841ZM15.7999 22.9894L16.2424 19.7633L14.6436 19.6063L14.1583 22.0901C13.1591 22.5897 11.9314 22.8324 10.4612 22.8324C8.46274 22.8324 6.87825 22.2043 5.72202 20.9339C4.5515 19.6634 3.98052 17.9933 3.98052 15.9092C3.98052 13.8822 4.5515 12.2121 5.67919 10.8989C6.80688 9.5856 8.29147 8.92897 10.1329 8.92897C11.075 8.92897 11.8744 9.04317 12.5167 9.25729C13.1591 9.4714 13.7443 9.7569 14.301 10.128L14.7721 12.5833L16.3994 12.4262L15.9283 9.20019C15.2432 8.61493 14.4295 8.14387 13.4874 7.77274C12.5452 7.41587 11.3748 7.2303 9.99013 7.2303C8.34856 7.2303 6.93538 7.62999 5.75059 8.44364C4.56581 9.25729 3.63796 10.3279 2.98133 11.6554C2.3247 12.9972 1.99638 14.4389 1.99638 15.9806C1.99638 18.4215 2.75293 20.4628 4.26603 22.0901C5.77913 23.7174 7.74901 24.531 10.19 24.531C12.5881 24.531 14.4581 24.0172 15.7999 22.9894Z" fill="#292F36"/>
<path d="M23.7222 29.7841V0.578369H31.1164V29.7698H23.7222V29.7841ZM24.5072 24.2741H30.3455V22.8038H28.3329V6.5023H24.4787V7.97258H26.52V22.8038H24.5072V24.2741V24.2741Z" fill="#292F36"/>
<path d="M36.9546 29.7841V0.578369H49.9444V29.7698H36.9546V29.7841ZM39.3099 13.6538L38.8959 16.3089L40.3948 16.4945L40.8373 14.5103C41.4796 14.1963 42.2076 14.0393 43.0641 14.0393C44.0919 14.0393 44.7913 14.2962 45.1482 14.8101C45.5051 15.324 45.6764 15.9949 45.6764 16.8228V17.8506C45.3623 17.822 45.034 17.7935 44.6771 17.7792C44.3203 17.7649 43.9777 17.7506 43.6351 17.7506C42.3504 17.7506 41.1227 17.979 39.9808 18.4358C38.8388 18.8926 38.2679 19.849 38.2679 21.2907C38.2679 22.5183 38.6533 23.3605 39.4384 23.8173C40.2235 24.2884 40.9943 24.5168 41.7509 24.5168C42.6787 24.5168 43.4781 24.2741 44.1347 23.7888C44.7913 23.3034 45.3052 22.761 45.6764 22.1329V22.19C45.7049 23.7459 46.4044 24.5168 47.7747 24.5168C48.3029 24.5168 48.8025 24.3883 49.2735 24.1314L49.245 22.9466C49.0166 23.0465 48.7596 23.1036 48.4742 23.1036C47.8175 23.1036 47.4892 22.6896 47.4892 21.8617V16.3946C47.4892 13.8251 46.1188 12.5404 43.3781 12.5404C42.6216 12.5404 41.9079 12.6261 41.237 12.7974C40.5518 12.9829 39.9094 13.2684 39.3099 13.6538ZM45.6621 19.9632C45.5907 20.9053 45.2053 21.6619 44.5058 22.2043C43.8064 22.761 43.0641 23.0322 42.2647 23.0322C41.7651 23.0322 41.2798 22.8895 40.823 22.6183C40.352 22.347 40.1235 21.8332 40.1235 21.0909C40.1235 20.1916 40.4804 19.6206 41.1656 19.3494C41.865 19.0782 42.6358 18.9497 43.5066 18.9497C43.892 18.9497 44.2631 18.964 44.62 19.0068C44.9769 19.0353 45.3337 19.0639 45.6478 19.0782V19.9632H45.6621Z" fill="#292F36"/>
<path d="M55.7974 29.7841V0.578369H67.6024V29.7698H55.7974V29.7841ZM66.3605 20.9481C66.3605 20.0346 66.1178 19.3637 65.6325 18.9211C65.1472 18.4786 64.5619 18.1789 63.8482 18.0076C63.1345 17.8363 62.435 17.6935 61.7356 17.5793C61.0361 17.4651 60.4366 17.2796 59.9513 17.0369C59.4659 16.7942 59.2232 16.366 59.2232 15.7522C59.2232 15.1669 59.4516 14.7387 59.9227 14.4532C60.3937 14.1677 60.979 14.0393 61.707 14.0393C62.5492 14.0393 63.3343 14.2248 64.0623 14.6102L64.3478 16.4659L65.8466 16.2804L65.5611 13.5967C65.0758 13.297 64.4906 13.0543 63.7911 12.8545C63.0917 12.6546 62.3494 12.5404 61.55 12.5404C60.4937 12.5404 59.523 12.7974 58.6237 13.297C57.7244 13.7966 57.2819 14.6531 57.2819 15.8807C57.2819 16.78 57.5246 17.4366 58.0099 17.8506C58.4952 18.2788 59.0948 18.5643 59.8228 18.7356C60.5508 18.9069 61.2645 19.0496 61.9782 19.1781C62.6919 19.2923 63.2915 19.4921 63.7768 19.7491C64.2622 20.006 64.5048 20.4485 64.5048 21.0909C64.5048 21.7475 64.1907 22.2328 63.5627 22.5469C62.9346 22.8609 62.2209 23.0179 61.4072 23.0179C60.4937 23.0179 59.6372 22.8324 58.8521 22.447L58.9235 20.9196L57.4817 20.7626L57.1249 23.3748C57.6245 23.7031 58.2811 23.9743 59.0805 24.1884C59.8799 24.4026 60.6792 24.5168 61.4929 24.5168C62.8775 24.5168 64.0338 24.2027 64.9616 23.5604C65.8895 22.9466 66.3605 22.0615 66.3605 20.9481Z" fill="#292F36"/>
<path d="M73.4404 29.7841V0.578369H85.2454V29.7698H73.4404V29.7841ZM84.0035 20.9481C84.0035 20.0346 83.7609 19.3637 83.2755 18.9211C82.7902 18.4786 82.2049 18.1789 81.4912 18.0076C80.7775 17.8363 80.0781 17.6935 79.3786 17.5793C78.6791 17.4651 78.0796 17.2796 77.5943 17.0369C77.1089 16.7942 76.8663 16.366 76.8663 15.7522C76.8663 15.1669 77.0946 14.7387 77.5657 14.4532C78.0368 14.1677 78.622 14.0393 79.35 14.0393C80.1922 14.0393 80.9774 14.2248 81.7054 14.6102L81.9909 16.4659L83.4897 16.2804L83.2042 13.5967C82.7188 13.297 82.1336 13.0543 81.4341 12.8545C80.7347 12.6546 79.9924 12.5404 79.193 12.5404C78.1367 12.5404 77.1661 12.7974 76.2668 13.297C75.3675 13.7966 74.9249 14.6531 74.9249 15.8807C74.9249 16.78 75.1676 17.4366 75.653 17.8506C76.1383 18.2788 76.7379 18.5643 77.4659 18.7356C78.1939 18.9069 78.9075 19.0496 79.6212 19.1781C80.335 19.2923 80.9345 19.4921 81.4198 19.7491C81.9052 20.006 82.1479 20.4485 82.1479 21.0909C82.1479 21.7475 81.8339 22.2328 81.2058 22.5469C80.5777 22.8609 79.864 23.0179 79.0503 23.0179C78.1367 23.0179 77.2802 22.8324 76.4951 22.447L76.5666 20.9196L75.1248 20.7626L74.768 23.3748C75.2676 23.7031 75.9242 23.9743 76.7236 24.1884C77.5229 24.4026 78.3223 24.5168 79.136 24.5168C80.5206 24.5168 81.6768 24.2027 82.6047 23.5604C83.5325 22.9466 84.0035 22.0615 84.0035 20.9481Z" fill="#292F36"/>
<path d="M91.084 29.7841V0.578369H98.8636V29.7698H91.084V29.7841ZM92.2259 24.2741H98.0643V22.8038H96.0515V12.7831H92.1832V14.2534H94.2529V22.8038H92.2402V24.2741H92.2259ZM94.0531 7.4587V9.814H96.023V7.4587H94.0531Z" fill="#292F36"/>
<path d="M104.702 29.7841V0.578369H117.135V29.7698H104.702V29.7841ZM116.021 20.4057L114.465 20.0631C114.123 22.0044 113.081 22.9751 111.368 22.9751C110.226 22.9751 109.355 22.5897 108.756 21.8189C108.156 21.0481 107.856 19.9632 107.856 18.5928C107.856 17.3509 108.128 16.2946 108.656 15.4096C109.184 14.5246 110.069 14.0964 111.296 14.0964C112.239 14.0964 113.067 14.3105 113.752 14.7387L114.194 16.68L115.693 16.4945L115.251 13.7252C114.665 13.2827 114.052 12.9687 113.409 12.7974C112.767 12.6261 112.067 12.5404 111.311 12.5404C109.526 12.5404 108.17 13.1685 107.285 14.4247C106.386 15.6808 105.944 17.1083 105.944 18.6928C105.944 20.5342 106.415 21.9759 107.371 22.9894C108.313 24.0172 109.584 24.531 111.168 24.531C112.753 24.531 113.923 24.0885 114.665 23.2178C115.408 22.3328 115.864 21.4049 116.021 20.4057Z" fill="#292F36"/>
<path d="M8.12019 45.7287C7.79187 46.3283 7.30652 46.7993 6.67844 47.1276C6.03609 47.456 5.27953 47.6273 4.39451 47.6273H1.83936V39.5764H4.39451C5.27953 39.5764 6.05036 39.7334 6.67844 40.0618C7.30652 40.3901 7.79187 40.8468 8.12019 41.4607C8.4485 42.0745 8.60551 42.7739 8.60551 43.6018C8.60551 44.4155 8.4485 45.1292 8.12019 45.7287ZM6.70698 45.8858C7.26368 45.3433 7.53492 44.5868 7.53492 43.6018C7.53492 42.6169 7.26368 41.8603 6.70698 41.3179C6.15027 40.7755 5.35089 40.5043 4.29458 40.5043H2.85288V46.6994H4.29458C5.35089 46.6994 6.15027 46.4282 6.70698 45.8858Z" fill="#292F36"/>
<path d="M13.9014 40.4186V43.1736H16.9562V43.973H13.9014V46.7851H17.2988V47.6273H12.8594V39.5764H17.2988V40.4186H13.9014V40.4186Z" fill="#292F36"/>
<path d="M26.32 46.5997C26.1344 46.928 25.8632 47.1992 25.4921 47.3991C25.1209 47.5989 24.6641 47.7131 24.1074 47.7131C23.5793 47.7131 23.0939 47.6132 22.68 47.4276C22.266 47.2278 21.9377 46.9708 21.6808 46.6282C21.4381 46.2856 21.2953 45.9002 21.2525 45.472H22.3659C22.3945 45.7004 22.4659 45.9288 22.5943 46.1429C22.7228 46.357 22.9226 46.5426 23.1653 46.6853C23.408 46.8281 23.7077 46.8994 24.0646 46.8994C24.5214 46.8994 24.8783 46.7853 25.121 46.5283C25.3636 46.2714 25.4921 45.9716 25.4921 45.5862C25.4921 45.2579 25.4064 44.9867 25.2351 44.7868C25.0638 44.587 24.8497 44.4157 24.6071 44.3015C24.3644 44.1873 24.0075 44.0588 23.5793 43.9161C23.0654 43.7448 22.6657 43.5878 22.3517 43.445C22.0377 43.3023 21.7807 43.0739 21.5666 42.7741C21.3524 42.4743 21.2383 42.0889 21.2383 41.6036C21.2383 41.1896 21.3382 40.8185 21.538 40.4902C21.7379 40.1761 22.0233 39.9192 22.4088 39.7479C22.7799 39.5766 23.2367 39.491 23.7363 39.491C24.5214 39.491 25.1637 39.6765 25.6205 40.062C26.0916 40.4474 26.3485 40.9327 26.4342 41.5322H25.3208C25.2637 41.2182 25.0924 40.9327 24.8354 40.69C24.5642 40.4474 24.2074 40.3189 23.7506 40.3189C23.3366 40.3189 22.994 40.4331 22.7514 40.6472C22.4944 40.8613 22.3802 41.1754 22.3802 41.5608C22.3802 41.8748 22.4659 42.1318 22.6229 42.3173C22.7942 42.5172 22.994 42.6599 23.2367 42.7741C23.4794 42.8883 23.8219 43.0025 24.2359 43.1452C24.7498 43.3165 25.1638 43.4736 25.4921 43.6306C25.8061 43.7876 26.0773 44.016 26.2914 44.3158C26.5056 44.6155 26.6198 45.0295 26.6198 45.5434C26.5912 45.9145 26.5056 46.2714 26.32 46.5997Z" fill="#292F36"/>
<path d="M31.8873 39.5764V47.6273H30.8452V39.5764H31.8873Z" fill="#292F36"/>
<path d="M42.4218 40.1903C43.0642 40.6613 43.4924 41.2894 43.7065 42.0888H42.6074C42.4218 41.6034 42.0935 41.2038 41.651 40.9183C41.2084 40.6185 40.6803 40.4758 40.0665 40.4758C39.5241 40.4758 39.0244 40.6042 38.5962 40.8612C38.168 41.1181 37.8254 41.475 37.5685 41.946C37.3258 42.4171 37.1973 42.9738 37.1973 43.6162C37.1973 44.2728 37.3258 44.8438 37.5685 45.3148C37.8111 45.7859 38.168 46.157 38.6105 46.414C39.053 46.6709 39.5669 46.7994 40.1522 46.7994C40.6518 46.7994 41.0942 46.6852 41.5082 46.4853C41.9222 46.2712 42.2505 45.9572 42.5217 45.5575C42.7929 45.1578 42.9357 44.6725 42.9928 44.13H39.8238V43.3592H43.8635V44.3156C43.7921 44.958 43.5923 45.5289 43.264 46.0571C42.9357 46.5853 42.4932 46.9849 41.9365 47.2847C41.3798 47.5845 40.7517 47.7415 40.0379 47.7415C39.2671 47.7415 38.5819 47.5702 37.9824 47.2276C37.3829 46.885 36.9261 46.3997 36.5978 45.7716C36.2694 45.1578 36.0981 44.4441 36.0981 43.6447C36.0981 42.8453 36.2694 42.1316 36.5978 41.5178C36.9261 40.904 37.3971 40.4044 37.9824 40.0618C38.5676 39.7192 39.2528 39.5336 40.0236 39.5336C40.9943 39.5051 41.7794 39.7335 42.4218 40.1903Z" fill="#292F36"/>
<path d="M54.3983 47.6273H53.3563L49.1738 41.2608V47.6273H48.1318V39.5764H49.1738L53.3563 45.9429V39.5764H54.3983V47.6273Z" fill="#292F36"/>
<path d="M69.4152 46.5997C69.2297 46.928 68.9584 47.1992 68.5873 47.3991C68.2161 47.5989 67.7594 47.7131 67.2027 47.7131C66.6745 47.7131 66.1892 47.6132 65.7752 47.4276C65.3613 47.2278 65.0329 46.9708 64.776 46.6282C64.5333 46.2856 64.3906 45.9002 64.3478 45.472H65.4612C65.4897 45.7004 65.5611 45.9288 65.6896 46.1429C65.8181 46.357 66.0179 46.5426 66.2605 46.6853C66.5032 46.8281 66.803 46.8994 67.1598 46.8994C67.6166 46.8994 67.9735 46.7853 68.2161 46.5283C68.4588 46.2714 68.5873 45.9716 68.5873 45.5862C68.5873 45.2579 68.5016 44.9867 68.3303 44.7868C68.1591 44.587 67.9449 44.4157 67.7023 44.3015C67.4596 44.1873 67.1028 44.0588 66.6745 43.9161C66.1607 43.7448 65.7609 43.5878 65.4469 43.445C65.1328 43.3023 64.8759 43.0739 64.6618 42.7741C64.4477 42.4743 64.3335 42.0889 64.3335 41.6036C64.3335 41.1896 64.4334 40.8185 64.6332 40.4902C64.833 40.1761 65.1186 39.9192 65.504 39.7479C65.8752 39.5766 66.3319 39.491 66.8315 39.491C67.6166 39.491 68.259 39.6765 68.7158 40.062C69.1868 40.4474 69.4438 40.9327 69.5294 41.5322H68.416C68.3589 41.2182 68.1876 40.9327 67.9306 40.69C67.6594 40.4474 67.3026 40.3189 66.8458 40.3189C66.4319 40.3189 66.0893 40.4331 65.8466 40.6472C65.5897 40.8613 65.4754 41.1754 65.4754 41.5608C65.4754 41.8748 65.5611 42.1318 65.7181 42.3173C65.8894 42.5172 66.0892 42.6599 66.3319 42.7741C66.5745 42.8883 66.9172 43.0025 67.3311 43.1452C67.845 43.3165 68.259 43.4736 68.5873 43.6306C68.9013 43.7876 69.1725 44.016 69.3867 44.3158C69.6008 44.6155 69.7149 45.0295 69.7149 45.5434C69.6864 45.9145 69.6008 46.2714 69.4152 46.5997Z" fill="#292F36"/>
<path d="M78.8789 39.5764V40.4186H76.6092V47.6273H75.5529V40.4186H73.2832V39.5764H78.8789Z" fill="#292F36"/>
<path d="M83.7322 39.5764V44.4012C83.7322 45.1863 83.9035 45.7716 84.2603 46.157C84.6172 46.5281 85.0883 46.728 85.7164 46.728C86.3302 46.728 86.8012 46.5424 87.1438 46.157C87.4864 45.7716 87.6577 45.2006 87.6577 44.4155V39.5907H88.6998V44.4155C88.6998 45.5146 88.4286 46.3425 87.8861 46.885C87.3437 47.4417 86.6156 47.7129 85.7021 47.7129C84.8028 47.7129 84.0748 47.4417 83.5324 46.885C82.99 46.3283 82.7188 45.5146 82.7188 44.4155V39.5907H83.7322V39.5764Z" fill="#292F36"/>
<path d="M99.4487 45.7287C99.1204 46.3283 98.635 46.7993 98.007 47.1276C97.3646 47.456 96.6081 47.6273 95.7231 47.6273H93.168V39.5764H95.7231C96.6081 39.5764 97.3789 39.7334 98.007 40.0618C98.635 40.3901 99.1204 40.8468 99.4487 41.4607C99.777 42.0745 99.9341 42.7739 99.9341 43.6018C99.9341 44.4155 99.777 45.1292 99.4487 45.7287ZM98.0498 45.8858C98.6065 45.3433 98.8778 44.5868 98.8778 43.6018C98.8778 42.6169 98.6065 41.8603 98.0498 41.3179C97.4931 40.7755 96.6938 40.5043 95.6374 40.5043H94.1957V46.6994H95.6374C96.6795 46.6994 97.4931 46.4282 98.0498 45.8858Z" fill="#292F36"/>
<path d="M105.244 39.5764V47.6273H104.202V39.5764H105.244Z" fill="#292F36"/>
<path d="M115.465 40.0047C116.064 40.3616 116.535 40.8469 116.878 41.475C117.221 42.1031 117.392 42.8168 117.392 43.6019C117.392 44.387 117.221 45.1007 116.878 45.7288C116.535 46.3569 116.064 46.8422 115.465 47.1991C114.865 47.5559 114.194 47.7272 113.452 47.7272C112.71 47.7272 112.025 47.5559 111.425 47.1991C110.826 46.8422 110.34 46.3569 109.998 45.7288C109.655 45.1007 109.484 44.387 109.484 43.6019C109.484 42.8168 109.655 42.1031 109.998 41.475C110.34 40.8469 110.811 40.3616 111.425 40.0047C112.039 39.6479 112.71 39.4766 113.452 39.4766C114.194 39.4766 114.865 39.6479 115.465 40.0047ZM111.953 40.8326C111.511 41.0896 111.168 41.4464 110.926 41.9318C110.683 42.4028 110.554 42.9595 110.554 43.6019C110.554 44.23 110.683 44.7867 110.926 45.272C111.168 45.7574 111.511 46.1142 111.953 46.3712C112.396 46.6281 112.881 46.7566 113.438 46.7566C113.98 46.7566 114.48 46.6281 114.922 46.3712C115.365 46.1142 115.708 45.7431 115.95 45.272C116.193 44.801 116.321 44.2443 116.321 43.6162C116.321 42.9738 116.193 42.4171 115.95 41.9461C115.708 41.475 115.365 41.1039 114.922 40.8469C114.48 40.59 113.995 40.4615 113.438 40.4615C112.895 40.4472 112.396 40.5757 111.953 40.8326Z" fill="#292F36"/>
</svg>
